<svg width="140" height="141" viewBox="0 0 140 141" fill="none" xmlns="http://www.w3.org/2000/svg">
<g clip-path="url(#clip0_8_2)">
<path d="M70 140.979C108.66 140.979 140 109.639 140 70.9795C140 32.3196 108.66 0.979492 70 0.979492C31.3401 0.979492 0 32.3196 0 70.9795C0 109.639 31.3401 140.979 70 140.979Z" fill="#FFF3E4"/>
<path d="M79.3809 29.0488H36.0059C32.1399 29.0488 29.0059 32.1828 29.0059 36.0488V94.7607C29.0059 98.6267 32.1399 101.761 36.0059 101.761H79.3809C83.2469 101.761 86.3809 98.6267 86.3809 94.7607V36.0488C86.3809 32.1828 83.2469 29.0488 79.3809 29.0488Z" fill="#FFF3E4" stroke="#1C1F23" stroke-width="1.5" stroke-linecap="round" stroke-dasharray="6 6"/>
<path d="M91.9047 36.3408H46.1357C42.2697 36.3408 39.1357 39.4748 39.1357 43.3408V105.909C39.1357 109.775 42.2697 112.909 46.1357 112.909H91.9047C95.7707 112.909 98.9047 109.775 98.9047 105.909V43.3408C98.9047 39.4748 95.7707 36.3408 91.9047 36.3408Z" fill="white"/>
<path d="M69.02 98.6172C75.6474 98.6172 81.02 93.2446 81.02 86.6172C81.02 79.9898 75.6474 74.6172 69.02 74.6172C62.3926 74.6172 57.02 79.9898 57.02 86.6172C57.02 93.2446 62.3926 98.6172 69.02 98.6172Z" fill="#F96007"/>
<mask id="mask0_8_2" style="mask-type:luminance" maskUnits="userSpaceOnUse" x="62" y="79" width="14" height="15">
<path d="M75.8264 79.8096H62.2124V93.4236H75.8264V79.8096Z" fill="white"/>
</mask>
<g mask="url(#mask0_8_2)">
<path d="M63.4375 87.4143L66.6271 90.604L74.6012 82.6299" stroke="white" stroke-width="2" stroke-linecap="round" stroke-linejoin="round"/>
</g>
<path d="M87.5237 50.6309H50.5166" stroke="#1C1F23" stroke-width="1.5" stroke-linecap="round"/>
<path d="M87.5237 58.6309H50.5166" stroke="#1C1F23" stroke-width="1.5" stroke-linecap="round"/>
<path d="M80.3465 66.6309H57.6938" stroke="#1C1F23" stroke-width="1.5" stroke-linecap="round"/>
<path d="M97.7232 92.1113H89.0718C88.6611 92.1113 88.2673 91.9482 87.9769 91.6578C87.6866 91.3674 87.5234 90.9736 87.5234 90.563V81.9116C87.5227 81.7105 87.5617 81.5113 87.6381 81.3253C87.7145 81.1393 87.8268 80.9703 87.9686 80.8277L111.194 57.6025C111.338 57.4562 111.51 57.3401 111.699 57.2608C111.888 57.1815 112.092 57.1406 112.297 57.1406C112.502 57.1406 112.706 57.1815 112.895 57.2608C113.084 57.3401 113.256 57.4562 113.4 57.6025L122.032 66.2346C122.179 66.3786 122.295 66.5504 122.374 66.7398C122.453 66.9292 122.494 67.1324 122.494 67.3378C122.494 67.5431 122.453 67.7464 122.374 67.9358C122.295 68.1252 122.179 68.2969 122.032 68.441L98.807 91.6662C98.6645 91.808 98.4954 91.9203 98.3094 91.9967C98.1235 92.0731 97.9242 92.112 97.7232 92.1113Z" stroke="#1C1F23" stroke-width="1.5" stroke-linecap="round" stroke-linejoin="round"/>
</g>
<defs>
<clipPath id="clip0_8_2">
<rect width="140" height="141" fill="white"/>
</clipPath>
</defs>
</svg>
