<svg width="140" height="140" viewBox="0 0 140 140" fill="none" xmlns="http://www.w3.org/2000/svg">
<g clip-path="url(#clip0_8_16)">
<path d="M70 140C108.66 140 140 108.66 140 70C140 31.3401 108.66 0 70 0C31.3401 0 0 31.3401 0 70C0 108.66 31.3401 140 70 140Z" fill="#FFF3E4"/>
<path d="M90.0318 43.2256H49.293C45.427 43.2256 42.293 46.3596 42.293 50.2256V90.9644C42.293 94.8304 45.427 97.9644 49.293 97.9644H90.0318C93.8978 97.9644 97.0318 94.8304 97.0318 90.9644V50.2256C97.0318 46.3596 93.8978 43.2256 90.0318 43.2256Z" stroke="#1C1F23" stroke-width="1.5" stroke-linecap="round" stroke-dasharray="6 6"/>
<path d="M58.293 43.6592C58.293 34.8226 51.1295 27.6592 42.293 27.6592C33.4564 27.6592 26.293 34.8226 26.293 43.6592C26.293 52.4957 33.4564 59.6592 42.293 59.6592C51.1295 59.6592 58.293 52.4957 58.293 43.6592Z" fill="white"/>
<path d="M42.2926 44.1058C44.6553 44.1058 46.5706 42.1905 46.5706 39.8278C46.5706 37.4651 44.6553 35.5498 42.2926 35.5498C39.9299 35.5498 38.0146 37.4651 38.0146 39.8278C38.0146 42.1905 39.9299 44.1058 42.2926 44.1058Z" fill="#B1B9CA"/>
<path d="M49.4672 51.7674C49.8609 51.7674 50.1835 51.4476 50.148 51.0554C50.0762 50.2637 49.885 49.486 49.5798 48.749C49.1834 47.792 48.6024 46.9225 47.8699 46.1901C47.1375 45.4577 46.268 44.8767 45.311 44.4803C44.3541 44.0839 43.3284 43.8799 42.2926 43.8799C41.2568 43.8799 40.2311 44.0839 39.2742 44.4803C38.3172 44.8767 37.4477 45.4577 36.7153 46.1901C35.9828 46.9225 35.4018 47.792 35.0055 48.749C34.7002 49.486 34.509 50.2637 34.4373 51.0554C34.4017 51.4476 34.7243 51.7674 35.118 51.7674H42.2926H49.4672Z" fill="#B1B9CA"/>
<path d="M113.707 43.6592C113.707 34.8226 106.544 27.6592 97.707 27.6592C88.8705 27.6592 81.707 34.8226 81.707 43.6592C81.707 52.4957 88.8705 59.6592 97.707 59.6592C106.544 59.6592 113.707 52.4957 113.707 43.6592Z" fill="white"/>
<path d="M97.7067 44.1058C100.069 44.1058 101.985 42.1905 101.985 39.8278C101.985 37.4651 100.069 35.5498 97.7067 35.5498C95.344 35.5498 93.4287 37.4651 93.4287 39.8278C93.4287 42.1905 95.344 44.1058 97.7067 44.1058Z" fill="#B1B9CA"/>
<path d="M104.881 51.7674C105.275 51.7674 105.598 51.4476 105.562 51.0554C105.49 50.2637 105.299 49.486 104.994 48.749C104.597 47.792 104.016 46.9225 103.284 46.1901C102.552 45.4577 101.682 44.8767 100.725 44.4803C99.7681 44.0839 98.7425 43.8799 97.7067 43.8799C96.6709 43.8799 95.6452 44.0839 94.6882 44.4803C93.7313 44.8767 92.8617 45.4577 92.1293 46.1901C91.3969 46.9225 90.8159 47.792 90.4195 48.749C90.1143 49.486 89.9231 50.2637 89.8513 51.0554C89.8158 51.4476 90.1383 51.7674 90.5321 51.7674H97.7067H104.881Z" fill="#B1B9CA"/>
<path d="M58.293 96.3389C58.293 87.5023 51.1295 80.3389 42.293 80.3389C33.4564 80.3389 26.293 87.5023 26.293 96.3389C26.293 105.175 33.4564 112.339 42.293 112.339C51.1295 112.339 58.293 105.175 58.293 96.3389Z" fill="white"/>
<path d="M42.2926 96.7855C44.6553 96.7855 46.5706 94.8702 46.5706 92.5075C46.5706 90.1448 44.6553 88.2295 42.2926 88.2295C39.9299 88.2295 38.0146 90.1448 38.0146 92.5075C38.0146 94.8702 39.9299 96.7855 42.2926 96.7855Z" fill="#B1B9CA"/>
<path d="M49.4672 104.447C49.8609 104.447 50.1835 104.127 50.148 103.735C50.0762 102.943 49.885 102.166 49.5798 101.429C49.1834 100.472 48.6024 99.6022 47.8699 98.8698C47.1375 98.1374 46.268 97.5564 45.311 97.16C44.3541 96.7636 43.3284 96.5596 42.2926 96.5596C41.2568 96.5596 40.2311 96.7636 39.2742 97.16C38.3172 97.5564 37.4477 98.1374 36.7153 98.8698C35.9828 99.6022 35.4018 100.472 35.0055 101.429C34.7002 102.166 34.509 102.943 34.4373 103.735C34.4017 104.127 34.7243 104.447 35.118 104.447H42.2926H49.4672Z" fill="#B1B9CA"/>
<path d="M113.032 96.3389C113.032 87.5023 105.868 80.3389 97.0317 80.3389C88.1951 80.3389 81.0317 87.5023 81.0317 96.3389C81.0317 105.175 88.1951 112.339 97.0317 112.339C105.868 112.339 113.032 105.175 113.032 96.3389Z" fill="white"/>
<path d="M97.0314 96.7855C99.3941 96.7855 101.309 94.8702 101.309 92.5075C101.309 90.1448 99.3941 88.2295 97.0314 88.2295C94.6687 88.2295 92.7534 90.1448 92.7534 92.5075C92.7534 94.8702 94.6687 96.7855 97.0314 96.7855Z" fill="#F96007"/>
<path d="M104.206 104.447C104.6 104.447 104.922 104.127 104.887 103.735C104.815 102.943 104.624 102.166 104.319 101.429C103.922 100.472 103.341 99.6022 102.609 98.8698C101.876 98.1374 101.007 97.5564 100.05 97.16C99.0928 96.7636 98.0672 96.5596 97.0314 96.5596C95.9956 96.5596 94.9699 96.7636 94.0129 97.16C93.056 97.5564 92.1865 98.1374 91.454 98.8698C90.7216 99.6022 90.1406 100.472 89.7442 101.429C89.439 102.166 89.2478 102.943 89.176 103.735C89.1405 104.127 89.463 104.447 89.8568 104.447H97.0314H104.206Z" fill="#F96007"/>
</g>
<defs>
<clipPath id="clip0_8_16">
<rect width="140" height="140" fill="white"/>
</clipPath>
</defs>
</svg>
