<svg width="32" height="32" viewBox="0 0 32 32" fill="none" xmlns="http://www.w3.org/2000/svg">
<g clip-path="url(#clip0_11_20684)">
<path d="M0.540527 11.9361C0.540527 11.0337 1.01107 10.2101 1.75326 9.8134L19.0675 0.558349C20.5054 -0.210254 22.1833 0.932844 22.1833 2.68102V20.1629C22.1833 21.4682 21.2143 22.5263 20.019 22.5263H2.70481C1.50951 22.5263 0.540527 21.4682 0.540527 20.1629V11.9361Z" fill="#005DFF"/>
<path d="M31.459 19.6116C31.459 20.5139 30.9884 21.3375 30.2463 21.7343L12.932 30.9893C11.4941 31.7579 9.81619 30.6148 9.81619 28.8666L9.81619 11.3848C9.81619 10.0795 10.7852 9.02141 11.9805 9.02141L29.2947 9.02141C30.49 9.02141 31.459 10.0795 31.459 11.3848L31.459 19.6116Z" fill="#005DFF"/>
<path fill-rule="evenodd" clip-rule="evenodd" d="M22.1837 9.02142V20.1629C22.1837 21.4681 21.2147 22.5262 20.0194 22.5262H9.81641L9.81641 11.3848C9.81641 10.0795 10.7854 9.02142 11.9807 9.02142L22.1837 9.02142Z" fill="#4BA9FF"/>
</g>
<defs>
<clipPath id="clip0_11_20684">
<rect width="32" height="32" fill="white"/>
</clipPath>
</defs>
</svg>
