<svg width="326" height="213" viewBox="0 0 326 213" fill="none" xmlns="http://www.w3.org/2000/svg">
<path fill-rule="evenodd" clip-rule="evenodd" d="M186.806 111.486C187.272 111.519 187.708 111.727 188.027 112.067C188.345 112.408 188.522 112.857 188.522 113.322C188.522 113.788 188.345 114.237 188.027 114.577C187.708 114.918 187.272 115.126 186.806 115.159H179.129C178.663 115.126 178.227 114.918 177.908 114.577C177.59 114.237 177.413 113.788 177.413 113.322C177.413 112.857 177.59 112.408 177.908 112.067C178.227 111.727 178.663 111.519 179.129 111.486H186.806ZM189.798 88.8525H186.652V94.8791H189.798V88.8525ZM203.295 88.8525H193.482V96.7156C193.482 96.9573 193.434 97.1968 193.341 97.4201C193.248 97.6435 193.112 97.8465 192.941 98.0174C192.769 98.1884 192.566 98.324 192.342 98.4165C192.118 98.509 191.878 98.5567 191.635 98.5567H184.81C184.568 98.5567 184.328 98.509 184.104 98.4165C183.88 98.324 183.676 98.1884 183.505 98.0174C183.333 97.8465 183.197 97.6435 183.104 97.4201C183.011 97.1968 182.964 96.9573 182.964 96.7156V88.8525H173.155V118.902H203.295V88.8525ZM171.313 85.1795C170.823 85.1795 170.354 85.3735 170.007 85.7188C169.661 86.064 169.466 86.5323 169.466 87.0206V120.734C169.466 121.223 169.661 121.691 170.007 122.036C170.354 122.381 170.823 122.575 171.313 122.575H205.137C205.379 122.575 205.62 122.528 205.844 122.435C206.068 122.343 206.271 122.207 206.443 122.036C206.614 121.865 206.75 121.662 206.843 121.439C206.936 121.215 206.984 120.976 206.984 120.734V87.016C206.984 86.7742 206.936 86.5348 206.843 86.3115C206.75 86.0881 206.614 85.8851 206.443 85.7142C206.271 85.5432 206.068 85.4076 205.844 85.3151C205.62 85.2225 205.379 85.1749 205.137 85.1749L171.313 85.1795ZM209.752 166.567H116.084C115.188 166.572 114.329 166.929 113.695 167.561C113.062 168.193 112.703 169.049 112.699 169.942V173.318H213.142V169.942C213.137 169.049 212.779 168.193 212.145 167.561C211.511 166.929 210.653 166.572 209.757 166.567H209.752ZM152.507 149.344V162.894H173.332V149.344H152.507ZM222.155 135.96H103.684V143.763C103.687 144.268 103.889 144.752 104.247 145.109C104.605 145.466 105.09 145.668 105.597 145.671H220.241C220.747 145.668 221.232 145.466 221.59 145.109C221.948 144.752 222.151 144.268 222.153 143.763L222.155 135.96ZM160.754 54.7307H105.597C104.113 54.7339 102.692 55.3229 101.643 56.3687C100.594 57.4144 100.003 58.8319 100 60.3108V143.763C100.002 145.243 100.593 146.661 101.642 147.706C102.691 148.752 104.113 149.341 105.597 149.344H148.82V162.894H116.084C114.207 162.897 112.408 163.641 111.081 164.964C109.754 166.287 109.008 168.081 109.005 169.952V173.359C109.007 174.324 109.392 175.25 110.076 175.932C110.761 176.615 111.689 176.999 112.657 177H213.174C214.142 176.999 215.07 176.615 215.755 175.932C216.44 175.25 216.825 174.324 216.826 173.359V169.947C216.824 168.076 216.077 166.282 214.75 164.959C213.423 163.636 211.624 162.892 209.747 162.889H177.016V149.344H220.239C221.723 149.341 223.145 148.752 224.194 147.706C225.243 146.661 225.833 145.243 225.836 143.763V62.2393C227.375 60.8769 228.917 59.4168 230.462 57.859C230.632 57.6891 230.768 57.4872 230.86 57.265C230.952 57.0428 231 56.8047 231 56.5641C231 56.3236 230.952 56.0855 230.86 55.8633C230.768 55.6411 230.632 55.4392 230.462 55.2692C230.428 55.2339 230.391 55.2017 230.354 55.1695C217.892 44.6507 205.517 39 193.472 39C182.085 39 171.105 44.0262 160.754 54.7307ZM194.3 76.4895C182.679 76.4895 171.482 70.4609 160.709 58.4037H105.597C105.09 58.4065 104.605 58.6084 104.247 58.9654C103.889 59.3224 103.687 59.8059 103.684 60.3108V132.287H222.152V65.3232C212.705 72.7653 203.423 76.4874 194.3 76.4895ZM164.042 56.6194C173.457 47.1331 183.328 42.673 193.472 42.673C204.121 42.673 215.179 47.5611 226.428 56.6884C215.333 67.4384 204.625 72.8144 194.305 72.8165C183.984 72.8185 173.897 67.4195 164.042 56.6194ZM124.437 100.82V118.902H120.448V100.82H124.437ZM118.606 97.1467H126.279C126.769 97.1467 127.238 97.3407 127.585 97.6859C127.931 98.0312 128.125 98.4995 128.125 98.9878V120.734C128.125 121.223 127.931 121.691 127.585 122.036C127.238 122.381 126.769 122.575 126.279 122.575H118.606C118.116 122.575 117.647 122.381 117.3 122.036C116.954 121.691 116.76 121.223 116.76 120.734V98.9832C116.76 98.4949 116.954 98.0266 117.3 97.6813C117.647 97.3361 118.116 97.1421 118.606 97.1421V97.1467ZM140.273 96.7769V118.902H136.284V96.7769H140.273ZM134.442 93.1039H142.115C142.358 93.1039 142.598 93.1516 142.822 93.2441C143.046 93.3366 143.249 93.4722 143.421 93.6432C143.592 93.8141 143.728 94.0171 143.821 94.2405C143.914 94.4638 143.962 94.7033 143.962 94.945V120.734C143.962 121.223 143.767 121.691 143.421 122.036C143.075 122.381 142.605 122.575 142.115 122.575H134.442C133.953 122.575 133.483 122.381 133.137 122.036C132.79 121.691 132.596 121.223 132.596 120.734V94.9404C132.596 94.4521 132.79 93.9839 133.137 93.6386C133.483 93.2933 133.953 93.0993 134.442 93.0993V93.1039ZM156.109 93.7391V118.901H152.121V93.7391H156.109ZM150.279 90.0661H157.957C158.447 90.0661 158.917 90.2601 159.263 90.6054C159.61 90.9506 159.804 91.4189 159.804 91.9072V120.734C159.804 121.223 159.61 121.691 159.263 122.036C158.917 122.381 158.447 122.575 157.957 122.575H150.279C150.036 122.575 149.796 122.528 149.572 122.435C149.348 122.343 149.144 122.207 148.973 122.036C148.801 121.865 148.665 121.662 148.573 121.439C148.48 121.215 148.432 120.976 148.432 120.734V91.9026C148.432 91.6608 148.48 91.4214 148.573 91.198C148.665 90.9747 148.801 90.7717 148.973 90.6008C149.144 90.4298 149.348 90.2942 149.572 90.2017C149.796 90.1091 150.036 90.0615 150.279 90.0615V90.0661ZM159.358 76.4435C154.464 80.7745 148.836 84.2033 142.738 86.5695C134.645 89.6086 126.061 91.1417 117.412 91.0925C116.926 91.0964 116.457 90.9074 116.111 90.5672C115.764 90.2269 115.567 89.7633 115.563 89.2783C115.559 88.7932 115.749 88.3265 116.09 87.9808C116.431 87.6351 116.896 87.4387 117.383 87.4349C125.585 87.4833 133.726 86.0319 141.403 83.1528C146.963 80.9965 152.105 77.8948 156.602 73.9856H154.697C154.444 74.0035 154.19 73.9692 153.951 73.885C153.712 73.8008 153.493 73.6684 153.307 73.4962C153.122 73.3239 152.974 73.1154 152.873 72.8836C152.772 72.6519 152.72 72.4018 152.72 72.1491C152.72 71.8964 152.772 71.6463 152.873 71.4146C152.974 71.1828 153.122 70.9743 153.307 70.802C153.493 70.6297 153.712 70.4974 153.951 70.4132C154.19 70.329 154.444 70.2947 154.697 70.3126H161.206C161.696 70.3126 162.165 70.5066 162.512 70.8518C162.858 71.1971 163.053 71.6654 163.053 72.1537V78.5239C163.02 78.9885 162.811 79.4234 162.469 79.7409C162.128 80.0584 161.678 80.2349 161.211 80.2349C160.743 80.2349 160.294 80.0584 159.952 79.7409C159.61 79.4234 159.402 78.9885 159.369 78.5239V76.4435H159.358ZM201.761 51.3507C203.245 52.8301 204.168 54.7768 204.374 56.859C204.58 58.9412 204.055 61.0302 202.889 62.7698C201.723 64.5094 199.988 65.7921 197.98 66.3993C195.971 67.0065 193.814 66.9005 191.875 66.0995C189.937 65.2985 188.337 63.852 187.348 62.0065C186.359 60.161 186.043 58.0308 186.453 55.9788C186.863 53.9268 187.974 52.0801 189.596 50.7533C191.219 49.4265 193.253 48.7018 195.351 48.7026C196.543 48.7012 197.723 48.9343 198.823 49.3888C199.924 49.8432 200.924 50.51 201.765 51.3507H201.761ZM195.351 45.0296C198.302 45.0293 201.162 46.049 203.443 47.9151C205.724 49.7811 207.286 52.3781 207.862 55.2634C208.438 58.1487 207.992 61.1439 206.602 63.7385C205.211 66.3332 202.961 68.3669 200.235 69.493C197.509 70.6191 194.476 70.7679 191.652 69.9142C188.828 69.0605 186.389 67.257 184.749 64.8111C183.11 62.3651 182.371 59.428 182.66 56.5003C182.949 53.5725 184.247 50.8352 186.334 48.7548C187.516 47.572 188.922 46.634 190.47 45.9947C192.017 45.3554 193.676 45.0274 195.351 45.0296ZM195.351 52.8865H195.527C195.41 53.1928 195.351 53.5178 195.351 53.8454C195.352 54.3671 195.502 54.8778 195.785 55.3169C196.067 55.756 196.47 56.1052 196.945 56.3232C197.421 56.5411 197.949 56.6187 198.467 56.5466C198.985 56.4746 199.472 56.256 199.869 55.9167C200.263 56.8813 200.335 57.9464 200.075 58.955C199.816 59.9637 199.238 60.8625 198.428 61.5192C197.617 62.1759 196.616 62.5557 195.573 62.6026C194.53 62.6496 193.499 62.3612 192.632 61.78C191.766 61.1988 191.109 60.3555 190.76 59.3743C190.41 58.3931 190.386 57.3258 190.69 56.3298C190.995 55.3337 191.612 54.4615 192.451 53.8416C193.29 53.2217 194.307 52.8869 195.351 52.8865Z" fill="white" stroke="white"/>
</svg>
