<svg width="326" height="213" viewBox="0 0 326 213" fill="none" xmlns="http://www.w3.org/2000/svg">
<path d="M216.22 48.2166H193.821V46.2643C193.821 43.6362 191.674 41.4962 189.037 41.4962H180.365C179.842 39.3825 178.708 37.4602 177.081 35.9622C175.005 34.0512 172.304 33 169.479 33C166.653 33 163.953 34.0512 161.877 35.9622C160.246 37.4602 159.112 39.3862 158.592 41.4962H149.92C147.284 41.4962 145.136 43.6362 145.136 46.2643V48.2166H122.73C120.093 48.2166 117.946 50.3566 117.946 52.9846V69.7818C114.688 70.7504 111.584 72.1358 108.668 73.9266C104.234 76.6486 100.445 80.1927 97.4047 84.4539C94.3648 88.7189 92.2515 93.4495 91.1251 98.5141C90.0365 103.406 89.9122 108.403 90.7522 113.367C91.5922 118.33 93.3552 123.008 95.9959 127.273C98.7269 131.692 102.283 135.469 106.559 138.498C110.062 140.984 113.882 142.846 117.946 144.055V173.516C117.946 176.144 120.093 178.284 122.73 178.284H216.216C218.853 178.284 221 176.144 221 173.516V52.9846C221.004 50.3566 218.857 48.2166 216.22 48.2166ZM148.896 46.2643C148.896 45.7049 149.352 45.2506 149.913 45.2506H160.178C161.157 45.2506 161.971 44.5035 162.054 43.5348C162.382 39.7354 165.64 36.7544 169.475 36.7544C173.31 36.7544 176.568 39.7316 176.896 43.5348C176.979 44.5072 177.796 45.2506 178.772 45.2506H189.037C189.598 45.2506 190.054 45.7049 190.054 46.2643V57.9141C190.054 58.4736 189.598 58.9278 189.037 58.9278H149.913C149.352 58.9278 148.896 58.4736 148.896 57.9141V46.2643ZM101.093 87.067C107.787 77.6848 118.387 72.6764 129.145 72.6764C136.035 72.6764 142.985 74.7301 149.013 79.0026C164.454 89.9466 168.085 111.373 157.104 126.762C151.785 134.218 143.871 139.163 134.819 140.683C132.882 141.01 130.95 141.172 129.025 141.172C121.95 141.172 115.064 138.994 109.184 134.827C93.7394 123.883 90.1118 102.456 101.093 87.067ZM217.237 173.512C217.237 174.071 216.781 174.526 216.22 174.526H122.73C122.169 174.526 121.713 174.071 121.713 173.512V144.975C124.143 145.444 126.595 145.677 129.055 145.677C131.225 145.677 133.398 145.493 135.568 145.129C140.548 144.291 145.242 142.534 149.521 139.903C152.885 137.838 155.876 135.296 158.456 132.33L163.173 135.671L160.656 139.2C159.911 140.248 160.155 141.701 161.206 142.448L197.012 167.828C197.422 168.117 197.893 168.259 198.36 168.259C199.091 168.259 199.811 167.918 200.266 167.283L209.669 154.105C210.03 153.599 210.174 152.983 210.068 152.367C209.963 151.755 209.627 151.218 209.119 150.858L173.314 125.478C172.805 125.118 172.187 124.975 171.569 125.08C170.955 125.185 170.417 125.519 170.055 126.026L167.539 129.555L162.822 126.214C164.789 122.813 166.213 119.163 167.068 115.319C168.157 110.427 168.281 105.43 167.441 100.466C166.601 95.5031 164.838 90.8251 162.197 86.5602C159.466 82.1412 155.91 78.3643 151.634 75.3345C147.359 72.3047 142.612 70.1985 137.527 69.076C132.619 67.9909 127.605 67.867 122.625 68.7043C122.32 68.7568 122.018 68.8094 121.717 68.8695V52.9846C121.717 52.4252 122.173 51.9709 122.734 51.9709H145.133V57.9141C145.133 60.5422 147.28 62.6822 149.917 62.6822H189.041C191.678 62.6822 193.825 60.5422 193.825 57.9141V51.9709H216.223C216.785 51.9709 217.241 52.4252 217.241 52.9846V173.512H217.237ZM172.296 129.364L205.77 153.088L198.025 163.942L164.551 140.218L172.296 129.364Z" fill="white"/>
<path d="M115.562 105.636H133.029C133.862 105.636 134.536 104.964 134.536 104.134V91.5723L141.068 83.2863C141.648 82.5542 141.52 81.4917 140.782 80.9135C140.047 80.3354 138.981 80.463 138.401 81.1989L134.446 86.2147C134.235 85.6366 133.681 85.2236 133.029 85.2236H115.562C114.729 85.2236 114.055 85.8956 114.055 86.7254V104.134C114.055 104.964 114.729 105.636 115.562 105.636ZM117.068 88.2309H131.522V89.9278L126.29 96.5619L122.361 90.8026C121.834 90.0292 120.779 89.8302 120.007 90.3558C119.234 90.8815 119.031 91.9327 119.558 92.7023L124.791 100.373C125.096 100.819 125.593 101.093 126.136 101.112C126.154 101.112 126.173 101.112 126.196 101.112C126.716 101.112 127.205 100.876 127.529 100.466L131.526 95.398V102.636H117.068V88.2309Z" fill="white"/>
<path d="M134.536 133.7V121.138L141.068 112.852C141.648 112.12 141.52 111.058 140.782 110.479C140.047 109.901 138.981 110.029 138.401 110.765L134.446 115.781C134.235 115.202 133.681 114.789 133.029 114.789H115.562C114.729 114.789 114.055 115.461 114.055 116.291V133.7C114.055 134.53 114.729 135.202 115.562 135.202H133.029C133.862 135.202 134.536 134.53 134.536 133.7ZM117.068 132.199V117.793H131.522V119.49L126.29 126.124L122.361 120.365C121.834 119.591 120.779 119.392 120.007 119.918C119.231 120.444 119.031 121.495 119.558 122.264L124.791 129.935C125.096 130.381 125.593 130.655 126.136 130.674C126.154 130.674 126.173 130.674 126.196 130.674C126.716 130.674 127.205 130.438 127.529 130.029L131.526 124.96V132.199H117.068Z" fill="white"/>
<path d="M155.081 146.555C154.347 145.977 153.281 146.105 152.701 146.841L149.065 151.451C148.821 150.952 148.304 150.61 147.713 150.61H131.244C130.411 150.61 129.737 151.282 129.737 152.112V168.522C129.737 169.352 130.411 170.024 131.244 170.024H147.709C148.542 170.024 149.216 169.352 149.216 168.522V156.726L155.364 148.928C155.944 148.196 155.816 147.134 155.081 146.555ZM146.202 167.021H132.75V153.614H146.202V155.082L141.366 161.22L137.734 155.9C137.207 155.127 136.152 154.928 135.38 155.453C134.604 155.979 134.404 157.03 134.932 157.8L139.863 165.031C140.168 165.477 140.665 165.752 141.207 165.77C141.226 165.77 141.245 165.77 141.268 165.77C141.788 165.77 142.277 165.534 142.601 165.125L146.206 160.552V167.021H146.202Z" fill="white"/>
<path d="M200.929 76.7499H161.263C162.6 78.1653 163.843 79.6671 164.985 81.2552H200.929C202.176 81.2552 203.19 80.2453 203.19 79.0026C203.19 77.7599 202.176 76.7499 200.929 76.7499Z" fill="white"/>
<path d="M200.929 97.1701H172.161C172.345 97.9735 172.504 98.7807 172.643 99.5917C172.76 100.282 172.861 100.981 172.944 101.675H200.933C202.18 101.675 203.193 100.665 203.193 99.4227C203.193 98.18 202.176 97.1701 200.929 97.1701Z" fill="white"/>
<path d="M200.929 117.59H171.946C171.792 118.21 171.622 118.822 171.441 119.434C171.174 120.331 170.88 121.221 170.556 122.095H178.294H200.929C202.176 122.095 203.19 121.086 203.19 119.843C203.19 118.6 202.176 117.59 200.929 117.59Z" fill="white"/>
</svg>
