<svg width="326" height="213" viewBox="0 0 326 213" fill="none" xmlns="http://www.w3.org/2000/svg">
<path fill-rule="evenodd" clip-rule="evenodd" d="M208.889 115.123V168.242C208.889 170.569 206.999 172.458 204.673 172.458H120.782C118.455 172.458 116.565 170.569 116.565 168.242V126.698C116.565 125.32 115.449 124.204 114.071 124.204C112.692 124.204 111.576 125.32 111.576 126.698V168.242C111.576 173.325 115.699 177.448 120.782 177.448H204.673C209.756 177.448 213.878 173.325 213.878 168.242V115.123C213.878 113.744 212.762 112.628 211.384 112.628C210.005 112.628 208.889 113.744 208.889 115.123ZM116.566 89.7396V63.1015C116.566 60.7753 118.456 58.8855 120.782 58.8855H197.907C199.285 58.8855 200.401 57.7691 200.401 56.3908C200.401 55.0124 199.285 53.8961 197.907 53.8961H120.782C115.699 53.8961 111.576 58.0185 111.576 63.1015V89.7396C111.576 91.1179 112.693 92.2343 114.071 92.2343C115.449 92.2343 116.566 91.1179 116.566 89.7396Z" fill="white"/>
<path fill-rule="evenodd" clip-rule="evenodd" d="M132.725 78.1002H192.262C193.64 78.1002 194.756 76.9838 194.756 75.6055C194.756 74.2272 193.64 73.1108 192.262 73.1108H132.725C131.347 73.1108 130.23 74.2272 130.23 75.6055C130.23 76.9838 131.347 78.1002 132.725 78.1002Z" fill="white"/>
<path fill-rule="evenodd" clip-rule="evenodd" d="M132.725 91.242H158.696C160.074 91.242 161.191 90.1256 161.191 88.7473C161.191 87.369 160.074 86.2526 158.696 86.2526H132.725C131.347 86.2526 130.23 87.369 130.23 88.7473C130.23 90.1256 131.347 91.242 132.725 91.242Z" fill="white"/>
<path fill-rule="evenodd" clip-rule="evenodd" d="M168.756 91.242H177.257C178.635 91.242 179.752 90.1256 179.752 88.7473C179.752 87.369 178.635 86.2526 177.257 86.2526H168.756C167.378 86.2526 166.261 87.369 166.261 88.7473C166.261 90.1256 167.378 91.242 168.756 91.242Z" fill="white"/>
<path fill-rule="evenodd" clip-rule="evenodd" d="M176.246 154.19H196.59C197.968 154.19 199.085 153.074 199.085 151.696C199.085 150.317 197.968 149.201 196.59 149.201H176.246C174.868 149.201 173.751 150.317 173.751 151.696C173.751 153.074 174.868 154.19 176.246 154.19Z" fill="white"/>
<path fill-rule="evenodd" clip-rule="evenodd" d="M85.5627 86.2717C95.7287 97.2485 138.026 142.926 144.344 149.75C145.236 150.717 146.427 151.353 147.724 151.553L159.718 153.442C161.564 153.736 163.441 153.124 164.763 151.802C166.086 150.48 166.697 148.603 166.404 146.757L164.514 134.763C164.308 133.466 163.672 132.275 162.711 131.383C155.888 125.065 110.21 82.7673 99.2328 72.6016C96.9252 70.4687 93.3453 70.5372 91.1188 72.7575C89.4973 74.3791 87.3331 76.5433 85.7115 78.1648C83.4913 80.3851 83.4226 83.9713 85.5556 86.2726L85.5627 86.2717ZM89.2238 82.8851C88.9119 82.5483 88.9182 82.0182 89.2425 81.6939C90.864 80.0724 93.0282 77.9082 94.6498 76.2866C94.9803 75.9623 95.5042 75.9498 95.841 76.2679C106.818 86.4339 152.496 128.731 159.32 135.049C159.463 135.18 159.557 135.355 159.581 135.548L161.471 147.535C161.515 147.803 161.428 148.084 161.228 148.277C161.035 148.471 160.76 148.564 160.486 148.521L148.499 146.631C148.305 146.6 148.131 146.506 148 146.369L89.2185 82.8904L89.2238 82.8851Z" fill="white"/>
<path fill-rule="evenodd" clip-rule="evenodd" d="M211.402 40C202.577 40 195.404 47.1661 195.404 55.9982C195.404 64.8232 202.57 71.9963 211.402 71.9963C220.227 71.9963 227.394 64.8302 227.394 55.9982C227.394 47.1731 220.228 40 211.402 40ZM211.402 44.9894C217.477 44.9894 222.404 49.9227 222.404 55.9974C222.404 62.072 217.477 67.0053 211.402 67.0053C205.327 67.0053 200.394 62.072 200.394 55.9974C200.394 49.9227 205.327 44.9894 211.402 44.9894Z" fill="white"/>
<path fill-rule="evenodd" clip-rule="evenodd" d="M189.618 107.644C201.555 107.644 221.25 107.644 233.194 107.613C236.538 107.613 239.593 105.717 241.084 102.717C242.568 99.7234 242.238 96.1497 240.23 93.4803C233.693 84.6615 223.21 78.9422 211.403 78.9422C199.596 78.9422 189.112 84.6613 182.552 93.4616C180.537 96.1248 180.2 99.7172 181.691 102.73C183.188 105.736 186.256 107.638 189.618 107.638L189.618 107.644ZM189.618 102.655C188.152 102.655 186.811 101.825 186.163 100.516C185.508 99.2058 185.657 97.6341 186.543 96.4678C186.549 96.4615 186.549 96.4553 186.556 96.4553C192.206 88.8776 201.237 83.9443 211.409 83.9443C221.575 83.9443 230.605 88.8713 236.231 96.4679C236.237 96.4741 236.244 96.4804 236.25 96.4866C237.129 97.6467 237.273 99.1996 236.624 100.503C235.976 101.807 234.647 102.63 233.194 102.63H233.188C221.25 102.661 201.56 102.661 189.624 102.661L189.618 102.655Z" fill="white"/>
</svg>
