<svg width="326" height="213" viewBox="0 0 326 213" fill="none" xmlns="http://www.w3.org/2000/svg">
<path d="M137.259 70.9269H103.007C99.2163 70.9269 96.1318 67.6769 96.1318 63.683V42.7069C96.1318 38.713 99.2163 35.463 103.007 35.463H137.259C141.05 35.463 144.134 38.713 144.134 42.7069V63.683C144.134 67.6769 141.05 70.9269 137.259 70.9269ZM103.007 38.399C100.752 38.399 98.9169 40.3314 98.9169 42.7084V63.6844C98.9169 66.0599 100.751 67.9938 103.007 67.9938H137.259C139.514 67.9938 141.349 66.0614 141.349 63.6844V42.7069C141.349 40.3314 139.515 38.3975 137.259 38.3975L103.007 38.399Z" fill="white" stroke="white"/>
<path d="M133.47 49.9024H106.796C106.026 49.9024 105.403 49.2465 105.403 48.4351C105.403 47.6237 106.026 46.9678 106.796 46.9678H133.469C134.239 46.9678 134.861 47.6237 134.861 48.4351C134.861 49.2465 134.239 49.9024 133.47 49.9024Z" fill="white" stroke="white"/>
<path d="M121.143 59.422H106.796C106.026 59.422 105.403 58.7661 105.403 57.9547C105.403 57.1433 106.026 56.4875 106.796 56.4875H121.143C121.913 56.4875 122.536 57.1433 122.536 57.9547C122.536 58.7661 121.913 59.422 121.143 59.422Z" fill="white" stroke="white"/>
<path d="M133.47 59.422H130.842C130.072 59.422 129.45 58.7661 129.45 57.9547C129.45 57.1433 130.072 56.4875 130.842 56.4875H133.47C134.24 56.4875 134.863 57.1433 134.863 57.9547C134.863 58.7661 134.239 59.422 133.47 59.422Z" fill="white" stroke="white"/>
<path d="M137.259 123.964H103.007C99.2163 123.964 96.1318 120.714 96.1318 116.72V95.7439C96.1318 91.75 99.2163 88.5 103.007 88.5H137.259C141.05 88.5 144.134 91.75 144.134 95.7439V116.721C144.134 120.714 141.05 123.964 137.259 123.964ZM103.007 91.4345C100.752 91.4345 98.9169 93.3669 98.9169 95.7439V116.721C98.9169 119.097 100.751 121.031 103.007 121.031H137.259C139.514 121.031 141.349 119.098 141.349 116.721V95.7439C141.349 93.3684 139.515 91.4345 137.259 91.4345H103.007Z" fill="white" stroke="white"/>
<path d="M133.47 102.939H106.796C106.026 102.939 105.403 102.283 105.403 101.472C105.403 100.661 106.026 100.005 106.796 100.005H133.469C134.239 100.005 134.861 100.661 134.861 101.472C134.861 102.283 134.239 102.939 133.47 102.939Z" fill="white" stroke="white"/>
<path d="M121.143 112.459H106.796C106.026 112.459 105.403 111.803 105.403 110.992C105.403 110.18 106.026 109.524 106.796 109.524H121.143C121.913 109.524 122.536 110.18 122.536 110.992C122.536 111.803 121.913 112.459 121.143 112.459Z" fill="white" stroke="white"/>
<path d="M133.47 112.459H130.842C130.072 112.459 129.45 111.803 129.45 110.992C129.45 110.18 130.072 109.524 130.842 109.524H133.47C134.24 109.524 134.863 110.18 134.863 110.992C134.863 111.803 134.239 112.459 133.47 112.459Z" fill="white" stroke="white"/>
<path d="M137.259 177H103.007C99.2163 177 96.1318 173.75 96.1318 169.756V148.782C96.1318 144.788 99.2163 141.538 103.007 141.538H137.259C141.05 141.538 144.134 144.788 144.134 148.782V169.758C144.134 173.751 141.05 177 137.259 177ZM103.007 144.474C100.752 144.474 98.9169 146.406 98.9169 148.783V169.759C98.9169 172.135 100.751 174.068 103.007 174.068H137.259C139.514 174.068 141.349 172.136 141.349 169.759V148.782C141.349 146.406 139.515 144.472 137.259 144.472L103.007 144.474Z" fill="white" stroke="white"/>
<path d="M133.002 155.774H106.328C105.558 155.774 104.935 155.118 104.935 154.307C104.935 153.496 105.558 152.84 106.328 152.84H133.001C133.771 152.84 134.393 153.496 134.393 154.307C134.393 155.118 133.771 155.774 133.002 155.774Z" fill="white" stroke="white"/>
<path d="M120.675 165.294H106.328C105.558 165.294 104.935 164.638 104.935 163.827C104.935 163.015 105.558 162.359 106.328 162.359H120.675C121.445 162.359 122.068 163.015 122.068 163.827C122.068 164.638 121.445 165.294 120.675 165.294Z" fill="white" stroke="white"/>
<path d="M133.002 165.294H130.374C129.604 165.294 128.982 164.638 128.982 163.827C128.982 163.015 129.604 162.359 130.374 162.359H133.002C133.772 162.359 134.395 163.015 134.395 163.827C134.395 164.638 133.771 165.294 133.002 165.294Z" fill="white" stroke="white"/>
<path d="M118.108 74.5201V84.1639C118.108 84.8577 118.73 85.4185 119.5 85.4185C120.27 85.4185 120.893 84.8577 120.893 84.1639V74.5201C120.893 73.8263 120.27 73.2655 119.5 73.2655C118.73 73.2655 118.108 73.8263 118.108 74.5201Z" fill="white" stroke="white"/>
<path d="M113.561 79.903C113.561 80.2786 113.698 80.6543 113.969 80.9404L118.516 85.731C119.06 86.3047 119.94 86.3047 120.485 85.731L125.032 80.9404C125.576 80.3667 125.576 79.4394 125.032 78.8657C124.487 78.292 123.607 78.292 123.063 78.8657L119.5 82.6175L115.938 78.8642C115.394 78.2905 114.514 78.2905 113.969 78.8642C113.698 79.1518 113.561 79.5274 113.561 79.903Z" fill="white" stroke="white"/>
<path d="M118.741 127.557V137.201C118.741 137.895 119.363 138.455 120.133 138.455C120.903 138.455 121.526 137.895 121.526 137.201V127.557C121.526 126.863 120.903 126.302 120.133 126.302C119.363 126.302 118.741 126.863 118.741 127.557Z" fill="white" stroke="white"/>
<path d="M114.194 132.94C114.194 133.316 114.33 133.691 114.602 133.977L119.149 138.768C119.693 139.342 120.573 139.342 121.118 138.768L125.664 133.977C126.209 133.404 126.209 132.476 125.664 131.903C125.12 131.329 124.24 131.329 123.695 131.903L120.133 135.654L116.571 131.901C116.026 131.327 115.146 131.327 114.602 131.901C114.33 132.189 114.194 132.564 114.194 132.94Z" fill="white" stroke="white"/>
<path d="M216.646 176.523H161.179C153.823 176.523 147.84 170.193 147.84 162.411V154.651C147.84 137.001 161.424 122.641 178.123 122.641H182.298C183.066 122.641 183.686 123.297 183.686 124.108V126.497C183.686 127.979 184.231 129.362 185.216 130.394C186.212 131.446 187.522 132.021 188.913 132.021C191.795 132.021 194.139 129.543 194.139 126.495V124.106C194.139 123.295 194.76 122.639 195.528 122.639H199.717C216.415 122.639 230 136.999 230 154.649V162.41C230 170.193 224.009 176.523 216.646 176.523ZM178.123 125.575C162.955 125.575 150.616 138.619 150.616 154.651V162.411C150.616 168.573 155.355 173.589 161.179 173.589H216.646C222.477 173.589 227.222 168.573 227.222 162.411V154.651C227.222 138.618 214.881 125.575 199.716 125.575H196.914V126.497C196.914 131.161 193.325 134.957 188.912 134.957C186.779 134.957 184.772 134.075 183.257 132.476C181.744 130.894 180.91 128.769 180.91 126.498V125.577H178.123V125.575Z" fill="white" stroke="white"/>
<path d="M188.913 134.955C186.781 134.955 184.773 134.074 183.259 132.474C181.746 130.893 180.911 128.768 180.911 126.497V115.552C180.911 115.092 181.117 114.656 181.467 114.379C181.815 114.1 182.265 114.015 182.69 114.144C186.65 115.369 191.13 115.372 195.146 114.155C195.564 114.028 196.018 114.117 196.363 114.393C196.712 114.67 196.916 115.103 196.916 115.566V126.497C196.916 131.16 193.326 134.955 188.913 134.955ZM183.686 117.433V126.497C183.686 127.979 184.231 129.362 185.216 130.394C186.212 131.446 187.522 132.021 188.913 132.021C191.795 132.021 194.139 129.543 194.139 126.495V117.436C190.727 118.193 187.072 118.189 183.686 117.433Z" fill="white" stroke="white"/>
<path d="M188.913 118.004C182.091 118.004 175.663 115.187 170.81 110.072C165.984 104.957 163.328 98.1667 163.328 90.9492V88.1306C161.247 87.9574 159.467 86.7249 158.611 84.8175C157.683 82.7428 157.786 80.4935 158.895 78.6432C159.885 76.9911 161.516 75.9479 163.329 75.7806V70.0568C163.329 69.2454 163.951 68.5895 164.717 68.5895H199.474C202.838 68.5895 206.092 67.5536 208.883 65.5948C209.459 65.1928 210.231 65.297 210.691 65.8457C213.005 68.6115 214.343 72.1139 214.497 75.7806C216.636 75.9655 218.435 77.2332 219.268 79.1847C220.155 81.2608 220.027 83.494 218.918 85.3105C217.927 86.9333 216.306 87.9604 214.512 88.1276V90.9507C214.511 105.867 203.028 118.004 188.913 118.004ZM164.716 85.1212C165.013 85.1212 165.307 85.2225 165.55 85.4161C165.898 85.692 166.104 86.1263 166.104 86.5885V90.9492C166.104 97.3861 168.472 103.44 172.773 107.997C177.098 112.556 182.831 115.07 188.913 115.07C201.497 115.07 211.734 104.249 211.734 90.9492V86.5885C211.734 86.1292 211.937 85.6993 212.281 85.4205C212.627 85.1432 213.07 85.0493 213.492 85.174C213.611 85.2078 213.778 85.2151 213.99 85.2151C215.041 85.2151 216.011 84.6546 216.583 83.717C216.929 83.1507 217.409 81.9666 216.735 80.3907C216.288 79.3402 215.22 78.6902 213.951 78.6902C213.763 78.6902 213.617 78.7063 213.506 78.7401C213.087 78.8677 212.635 78.7782 212.287 78.5024C211.939 78.2265 211.734 77.7922 211.734 77.33V76.4937C211.734 73.6985 210.89 70.9885 209.337 68.745C206.343 70.5659 202.957 71.5241 199.473 71.5241H166.104V77.3315C166.104 77.7907 165.901 78.2207 165.557 78.4994C165.213 78.7768 164.764 78.8707 164.346 78.7459C164.216 78.7093 164.062 78.6917 163.847 78.6917C162.785 78.6917 161.81 79.261 161.24 80.2147C160.651 81.1963 160.607 82.417 161.119 83.56C161.583 84.5915 162.688 85.1843 163.876 85.2166C164.08 85.2166 164.23 85.2107 164.331 85.1799C164.458 85.1388 164.587 85.1212 164.716 85.1212Z" fill="white" stroke="white"/>
<path d="M199.471 71.5211H164.716C163.949 71.5211 163.328 70.8652 163.328 70.0538V62.4197C163.328 53.7657 169.988 46.7258 178.177 46.7258H217.978C218.746 46.7258 219.367 47.3816 219.367 48.193V50.4922C219.367 62.0866 210.442 71.5211 199.471 71.5211ZM166.104 68.5866H199.473C208.912 68.5866 216.592 60.4697 216.592 50.4922V49.6603H178.177C171.519 49.6603 166.104 55.3841 166.104 62.4197V68.5866Z" fill="white" stroke="white"/>
<path d="M179.854 86.3757C179.086 86.3757 178.466 85.7199 178.466 84.9085V82.8059C178.466 81.9945 179.086 81.3386 179.854 81.3386C180.621 81.3386 181.242 81.9945 181.242 82.8059V84.9085C181.242 85.7199 180.62 86.3757 179.854 86.3757Z" fill="white" stroke="white"/>
<path d="M197.979 86.3757C197.211 86.3757 196.591 85.7199 196.591 84.9085V82.8059C196.591 81.9945 197.211 81.3386 197.979 81.3386C198.747 81.3386 199.367 81.9945 199.367 82.8059V84.9085C199.367 85.7199 198.747 86.3757 197.979 86.3757Z" fill="white" stroke="white"/>
<path d="M188.917 105.67C186.196 105.67 183.641 104.554 181.722 102.524C181.179 101.951 181.179 101.023 181.722 100.45C182.265 99.876 183.142 99.876 183.685 100.45C185.079 101.924 186.938 102.736 188.917 102.736C190.897 102.736 192.754 101.924 194.149 100.45C194.692 99.876 195.569 99.876 196.112 100.45C196.655 101.023 196.655 101.951 196.112 102.524C194.192 104.555 191.638 105.67 188.917 105.67Z" fill="white" stroke="white"/>
<path d="M190.466 97.1748H187.368C186.6 97.1748 185.98 96.5189 185.98 95.7075C185.98 94.8961 186.6 94.2403 187.368 94.2403H188.756L187.691 88.8848C187.534 88.091 188.013 87.3133 188.763 87.146C189.514 86.9788 190.25 87.4864 190.408 88.2788L191.825 95.4038C191.913 95.8367 191.807 96.2886 191.545 96.6305C191.281 96.9767 190.886 97.1748 190.466 97.1748Z" fill="white" stroke="white"/>
<path d="M211.308 145.477H201C200.232 145.477 199.612 144.821 199.612 144.01C199.612 143.199 200.232 142.543 201 142.543H211.308C212.076 142.543 212.696 143.199 212.696 144.01C212.696 144.821 212.075 145.477 211.308 145.477Z" fill="white" stroke="white"/>
</svg>
