<svg width="326" height="213" viewBox="0 0 326 213" fill="none" xmlns="http://www.w3.org/2000/svg">
<path d="M211.889 41.1313H186.222V39.9182C186.221 38.9534 185.835 38.0283 185.147 37.3461C184.46 36.6638 183.528 36.28 182.556 36.2789H171.432C171.147 34.2603 170.137 32.4119 168.587 31.0743C167.038 29.7367 165.054 29 163 29C160.946 29 158.962 29.7367 157.413 31.0743C155.863 32.4119 154.853 34.2603 154.568 36.2789H143.444C142.472 36.28 141.54 36.6638 140.853 37.3461C140.165 38.0283 139.779 38.9534 139.778 39.9182V41.1313H114.111C112.491 41.1332 110.938 41.7728 109.792 42.9099C108.646 44.047 108.002 45.5887 108 47.1968V170.934C108.002 172.543 108.646 174.084 109.792 175.221C110.938 176.359 112.491 176.998 114.111 177H211.889C213.509 176.998 215.062 176.359 216.208 175.221C217.354 174.084 217.998 172.543 218 170.934V47.1968C217.998 45.5887 217.354 44.047 216.208 42.9099C215.062 41.7728 213.509 41.1332 211.889 41.1313ZM139.987 53.2626C139.997 53.2873 140.016 53.3083 140.026 53.3337C140.14 53.6336 140.294 53.9172 140.484 54.1768C140.522 54.2293 140.566 54.2754 140.608 54.3248C140.791 54.5514 141.001 54.7553 141.234 54.9321C141.272 54.9612 141.305 54.9952 141.345 55.0228C141.613 55.2069 141.905 55.3543 142.212 55.4612C142.282 55.4858 142.352 55.5058 142.424 55.5268C142.755 55.6288 143.099 55.6832 143.446 55.6883H182.556C182.902 55.6832 183.246 55.6288 183.577 55.5268C183.649 55.5058 183.719 55.4863 183.789 55.4612C184.097 55.3543 184.388 55.2069 184.656 55.0228C184.696 54.9952 184.729 54.9612 184.767 54.9321C185 54.7553 185.21 54.5514 185.393 54.3248C185.435 54.2754 185.479 54.2288 185.518 54.1768C185.707 53.9172 185.861 53.6336 185.975 53.3337C185.986 53.309 186.005 53.2883 186.014 53.2626H205.779V164.869H120.222V53.2626H139.987ZM163 31.4265C164.408 31.4281 165.773 31.9116 166.864 32.7955C167.955 33.6794 168.706 34.9097 168.989 36.2789H157.013C157.297 34.9101 158.047 33.6801 159.137 32.7963C160.228 31.9124 161.592 31.4286 163 31.4265ZM142.222 39.9182C142.222 39.5966 142.351 39.2882 142.58 39.0608C142.81 38.8334 143.12 38.7054 143.444 38.7051H182.556C182.88 38.7054 183.19 38.8334 183.42 39.0608C183.649 39.2882 183.778 39.5966 183.778 39.9182V52.0495C183.778 52.3711 183.649 52.6795 183.42 52.9069C183.19 53.1344 182.88 53.2623 182.556 53.2626H143.444C143.12 53.2623 142.81 53.1344 142.58 52.9069C142.351 52.6795 142.222 52.3711 142.222 52.0495V39.9182ZM215.556 170.934C215.555 171.899 215.168 172.824 214.48 173.507C213.793 174.189 212.861 174.573 211.889 174.574H114.111C113.139 174.573 112.207 174.189 111.52 173.507C110.832 172.824 110.445 171.899 110.444 170.934V47.1968C110.446 46.232 110.832 45.307 111.52 44.6247C112.207 43.9424 113.139 43.5586 114.111 43.5575H139.778V50.8364H119C118.839 50.8363 118.68 50.8677 118.532 50.9286C118.384 50.9896 118.249 51.0789 118.136 51.1916C118.022 51.3042 117.932 51.438 117.871 51.5852C117.809 51.7324 117.778 51.8902 117.778 52.0495V166.083C117.778 166.243 117.809 166.4 117.871 166.548C117.932 166.695 118.022 166.829 118.136 166.941C118.249 167.054 118.384 167.143 118.532 167.204C118.68 167.265 118.839 167.296 119 167.296H207.001C207.161 167.296 207.32 167.265 207.468 167.204C207.617 167.143 207.751 167.054 207.865 166.941C207.978 166.829 208.068 166.695 208.13 166.548C208.191 166.4 208.223 166.243 208.223 166.083V52.0495C208.223 51.8902 208.191 51.7324 208.13 51.5852C208.068 51.438 207.978 51.3042 207.865 51.1916C207.751 51.0789 207.617 50.9896 207.468 50.9286C207.32 50.8677 207.161 50.8363 207.001 50.8364H186.222V43.5575H211.889C212.861 43.5586 213.793 43.9424 214.48 44.6247C215.168 45.307 215.554 46.232 215.556 47.1968V170.934ZM131.179 107.701H143.444C143.605 107.701 143.764 107.67 143.912 107.609C144.06 107.548 144.195 107.458 144.309 107.346C144.422 107.233 144.512 107.099 144.574 106.952C144.635 106.805 144.667 106.647 144.667 106.488V94.3135C144.667 94.1542 144.635 93.9964 144.574 93.8492C144.512 93.702 144.422 93.5682 144.309 93.4556C144.195 93.3429 144.06 93.2536 143.912 93.1926C143.764 93.1317 143.605 93.1004 143.444 93.1004H131.179C131.019 93.1004 130.86 93.1318 130.711 93.1927C130.563 93.2537 130.428 93.343 130.315 93.4557C130.201 93.5683 130.111 93.7021 130.05 93.8493C129.988 93.9965 129.957 94.1542 129.957 94.3135V106.488C129.957 106.647 129.988 106.805 130.05 106.952C130.111 107.099 130.201 107.233 130.315 107.346C130.428 107.458 130.563 107.548 130.711 107.609C130.86 107.67 131.019 107.701 131.179 107.701ZM132.401 95.5266H142.222V105.275H132.401V95.5266ZM152.153 100.4C152.153 100.241 152.184 100.083 152.246 99.936C152.307 99.7888 152.397 99.6551 152.511 99.5424C152.624 99.4298 152.759 99.3404 152.907 99.2795C153.055 99.2185 153.214 99.1871 153.375 99.1872H194.822C195.146 99.1872 195.457 99.315 195.686 99.5425C195.916 99.77 196.044 100.079 196.044 100.4C196.044 100.722 195.916 101.031 195.686 101.258C195.457 101.486 195.146 101.613 194.822 101.613H153.375C153.214 101.613 153.055 101.582 152.907 101.521C152.759 101.46 152.624 101.371 152.511 101.258C152.397 101.145 152.307 101.012 152.246 100.865C152.184 100.717 152.153 100.56 152.153 100.4ZM131.179 129.884H143.444C143.605 129.884 143.764 129.852 143.912 129.791C144.06 129.73 144.195 129.641 144.309 129.528C144.422 129.416 144.512 129.282 144.574 129.135C144.635 128.988 144.667 128.83 144.667 128.67V116.496C144.667 116.337 144.635 116.179 144.574 116.032C144.512 115.884 144.422 115.751 144.309 115.638C144.195 115.525 144.06 115.436 143.912 115.375C143.764 115.314 143.605 115.283 143.444 115.283H131.179C131.019 115.283 130.86 115.314 130.711 115.375C130.563 115.436 130.428 115.525 130.315 115.638C130.201 115.751 130.111 115.885 130.05 116.032C129.988 116.179 129.957 116.337 129.957 116.496V128.67C129.957 128.83 129.988 128.988 130.05 129.135C130.111 129.282 130.201 129.416 130.315 129.528C130.428 129.641 130.563 129.73 130.711 129.791C130.86 129.852 131.019 129.884 131.179 129.884ZM132.401 117.709H142.222V127.457H132.401V117.709ZM152.153 122.583C152.153 122.424 152.184 122.266 152.246 122.119C152.307 121.972 152.397 121.838 152.511 121.726C152.624 121.613 152.759 121.524 152.907 121.463C153.055 121.402 153.214 121.37 153.375 121.37H194.822C195.146 121.37 195.457 121.498 195.686 121.726C195.916 121.953 196.044 122.262 196.044 122.583C196.044 122.905 195.916 123.214 195.686 123.441C195.457 123.669 195.146 123.797 194.822 123.797H153.375C153.214 123.797 153.055 123.765 152.907 123.704C152.759 123.643 152.624 123.554 152.511 123.441C152.397 123.329 152.307 123.195 152.246 123.048C152.184 122.901 152.153 122.743 152.153 122.583ZM152.153 78.2178C152.153 78.0585 152.184 77.9008 152.246 77.7536C152.307 77.6064 152.397 77.4726 152.511 77.36C152.624 77.2473 152.759 77.158 152.907 77.097C153.055 77.0361 153.214 77.0047 153.375 77.0047H194.822C194.983 77.0047 195.142 77.0361 195.29 77.0971C195.438 77.158 195.573 77.2474 195.686 77.36C195.8 77.4727 195.89 77.6064 195.951 77.7536C196.013 77.9008 196.044 78.0585 196.044 78.2178C196.044 78.3771 196.013 78.5349 195.951 78.6821C195.89 78.8293 195.8 78.963 195.686 79.0756C195.573 79.1883 195.438 79.2776 195.29 79.3386C195.142 79.3996 194.983 79.4309 194.822 79.4309H153.375C153.214 79.431 153.055 79.3996 152.907 79.3387C152.759 79.2777 152.624 79.1884 152.511 79.0757C152.397 78.963 152.307 78.8293 152.246 78.6821C152.184 78.5349 152.153 78.3772 152.153 78.2178ZM131.179 152.066H143.444C143.605 152.066 143.764 152.035 143.912 151.974C144.06 151.913 144.195 151.824 144.309 151.711C144.422 151.598 144.512 151.465 144.574 151.318C144.635 151.17 144.667 151.013 144.667 150.853V138.679C144.667 138.519 144.635 138.362 144.574 138.214C144.512 138.067 144.422 137.933 144.309 137.821C144.195 137.708 144.06 137.619 143.912 137.558C143.764 137.497 143.605 137.465 143.444 137.465H131.179C131.019 137.465 130.86 137.497 130.711 137.558C130.563 137.619 130.428 137.708 130.315 137.821C130.201 137.933 130.111 138.067 130.05 138.214C129.988 138.362 129.957 138.519 129.957 138.679V150.853C129.957 151.013 129.989 151.17 130.05 151.318C130.111 151.465 130.201 151.598 130.315 151.711C130.428 151.824 130.563 151.913 130.711 151.974C130.86 152.035 131.019 152.066 131.179 152.066ZM132.401 139.892H142.222V149.64H132.401V139.892ZM152.153 144.766C152.153 144.607 152.184 144.449 152.246 144.302C152.307 144.155 152.397 144.021 152.511 143.908C152.624 143.796 152.759 143.706 152.907 143.645C153.055 143.584 153.214 143.553 153.375 143.553H194.822C195.143 143.557 195.45 143.687 195.675 143.914C195.901 144.141 196.027 144.447 196.027 144.766C196.027 145.085 195.901 145.391 195.675 145.618C195.45 145.845 195.143 145.975 194.822 145.979H153.375C153.051 145.979 152.74 145.851 152.511 145.624C152.281 145.396 152.153 145.088 152.153 144.766ZM130.146 78.2871C130.06 78.1524 130.002 78.0023 129.975 77.8453C129.948 77.6883 129.952 77.5275 129.987 77.3721C130.023 77.2167 130.089 77.0698 130.181 76.9396C130.274 76.8095 130.391 76.6988 130.527 76.6138C130.663 76.5287 130.814 76.4711 130.972 76.4441C131.13 76.4171 131.292 76.4213 131.449 76.4564C131.605 76.4915 131.754 76.5569 131.885 76.6489C132.016 76.7408 132.127 76.8574 132.213 76.9921L134.28 80.2412L142.671 73.4495C142.922 73.2462 143.245 73.1503 143.567 73.1829C143.889 73.2154 144.186 73.3737 144.391 73.6231C144.595 73.8724 144.692 74.1922 144.659 74.5123C144.626 74.8323 144.467 75.1263 144.216 75.3296L134.754 82.9866C134.62 83.0952 134.464 83.1742 134.297 83.2186C134.13 83.2629 133.956 83.2716 133.785 83.2439C133.614 83.2163 133.451 83.1529 133.307 83.0582C133.163 82.9634 133.041 82.8393 132.948 82.6941L130.146 78.2871Z" fill="white" stroke="white"/>
</svg>
