<svg width="326" height="213" viewBox="0 0 326 213" fill="none" xmlns="http://www.w3.org/2000/svg">
<path d="M147.647 155.634C145.935 155.634 144.549 154.251 144.549 152.541C144.549 150.831 145.935 149.448 147.647 149.448H171.706C172.559 149.448 173.339 149.098 173.896 148.542C174.453 147.98 174.804 147.207 174.804 146.355V144.024C174.804 143.172 174.453 142.393 173.896 141.837C173.333 141.281 172.559 140.931 171.706 140.931C164.396 140.931 158.624 140.689 153.789 140.49C140.98 139.958 135.055 139.71 114.591 145.582V164.646H180.238L228.373 144.435C229.05 144.006 229.51 143.347 229.704 142.616C229.91 141.843 229.825 140.997 229.401 140.266L228.234 138.231C227.913 137.675 227.411 137.343 226.83 137.192C225.825 136.926 224.548 137.053 223.266 137.403L180.565 149.14C180.105 150.566 179.312 151.853 178.271 152.886C176.577 154.577 174.254 155.622 171.706 155.622H147.648L147.647 155.634ZM157.42 40.0073H186.833V46.193H157.42V40.0073ZM157.42 47.8723H176.885V54.058H157.42V47.8723ZM138.873 62.8171H148.21C146.806 59.6336 144.827 56.7703 142.395 54.3419C138.032 49.9865 132.229 47.0689 125.767 46.356V70.9473H150.4C150.328 70.2889 150.231 69.6425 150.116 69.0022H138.879V62.8165L138.873 62.8171ZM154.865 62.8171H164.057V57.2415H170.253V65.91C170.253 67.6196 168.867 69.0028 167.155 69.0028H156.39C156.638 70.6459 156.759 72.3312 156.759 74.0408C156.759 75.7504 155.374 77.1337 153.661 77.1337H148.694C148.282 80.6252 147.181 83.9053 145.529 86.8411C143.326 90.7616 140.131 94.0598 136.289 96.3915L133.07 91.1241C135.999 89.3421 138.443 86.8169 140.131 83.8207C141.275 81.785 142.074 79.5319 142.443 77.1337H122.662C120.949 77.1337 119.564 75.7503 119.564 74.0408V54.2929C115.28 54.9574 111.437 56.981 108.509 59.9047C104.89 63.517 102.645 68.5188 102.645 74.034C102.645 78.9088 104.388 83.373 107.28 86.8343C110.233 90.362 114.378 92.8689 119.08 93.7146L117.99 99.7796C111.812 98.6681 106.391 95.4061 102.536 90.803C98.7362 86.2604 96.4489 80.4129 96.4489 74.0397C96.4489 66.815 99.3836 60.2729 104.128 55.5367C108.182 51.4894 113.567 48.759 119.563 48.0523V43.0929C119.563 41.3833 120.949 40 122.662 40C132.077 40 140.603 43.8116 146.768 49.9672C150.356 53.5494 153.145 57.9289 154.858 62.8159L154.865 62.8171ZM215.424 88.0796L215.43 126.94H209.258L209.252 88.0796H215.424ZM198.293 101.973V126.945H192.097V101.973H198.293ZM181.151 76.1975V126.939H174.955V76.1975H181.151ZM164.009 90.8946V126.94H157.813V90.8946H164.009ZM146.868 108.007V126.933H140.672V108.007H146.868ZM129.707 84.0439L129.713 126.933H123.541L123.535 84.0439H129.707ZM114.604 139.16C134.646 133.512 140.902 133.778 154.044 134.322C158.601 134.509 164.034 134.738 171.719 134.738C174.266 134.738 176.59 135.783 178.272 137.463C179.658 138.852 180.614 140.658 180.91 142.664L221.633 131.464C223.896 130.836 226.292 130.649 228.434 131.223C230.534 131.784 232.349 133.017 233.59 135.161L234.752 137.173C236.04 139.384 236.294 141.909 235.683 144.204C235.066 146.494 233.578 148.56 231.363 149.834L230.836 150.076L182.035 170.566C181.642 170.729 181.237 170.808 180.837 170.808L114.597 170.82V171.907C114.597 173.617 113.212 175 111.499 175H93.0981C91.3856 175 90 173.617 90 171.907V137.832C90 136.122 91.3857 134.739 93.0981 134.739H111.499C113.212 134.739 114.597 136.122 114.597 137.832V139.161L114.604 139.16ZM108.408 140.924H96.2033V168.814H108.408V140.924Z" fill="white"/>
</svg>
