<svg width="326" height="213" viewBox="0 0 326 213" fill="none" xmlns="http://www.w3.org/2000/svg">
<path d="M187.795 116.021C183.042 120.735 181.623 127.816 184.19 133.971C186.762 140.126 192.819 144.142 199.533 144.142C206.253 144.142 212.309 140.126 214.876 133.971C217.449 127.817 216.03 120.735 211.277 116.021C208.18 112.91 203.952 111.153 199.534 111.153C195.121 111.153 190.892 112.91 187.795 116.021ZM208.525 136.585C203.685 141.367 195.91 141.516 190.897 136.917H202.156C203.229 136.917 204.106 136.048 204.106 134.984C204.106 133.92 203.229 133.05 202.156 133.05H188.03C186.179 129.143 186.473 124.562 188.809 120.918H202.162C203.235 120.918 204.106 120.054 204.106 118.984C204.106 117.92 203.235 117.051 202.162 117.051H192.685C198.153 113.579 205.38 114.746 209.447 119.768C213.52 124.785 213.116 132.038 208.525 136.585ZM127.081 90.2866C127.081 89.2226 127.958 88.3532 129.031 88.3532H202.156C203.229 88.3532 204.106 89.2227 204.106 90.2866C204.106 91.3563 203.229 92.22 202.156 92.22H129.031C128.517 92.22 128.021 92.0141 127.652 91.6537C127.289 91.2933 127.081 90.8014 127.081 90.2866ZM127.081 99.4331C127.081 98.3635 127.958 97.4997 129.031 97.4997H168.869C169.942 97.4997 170.813 98.3635 170.813 99.4331C170.813 100.497 169.942 101.361 168.869 101.361H129.031C128.517 101.361 128.021 101.161 127.652 100.795C127.289 100.434 127.081 99.9422 127.081 99.4331ZM140.866 110.507H129.031C127.958 110.507 127.081 109.644 127.081 108.574C127.081 107.51 127.958 106.641 129.031 106.641H140.872C141.945 106.641 142.816 107.51 142.816 108.574C142.816 109.644 141.945 110.507 140.872 110.507H140.866ZM149.957 77.7994C151.03 77.7994 151.906 78.6631 151.906 79.7271C151.906 80.7968 151.03 81.6605 149.957 81.6605H139.153C138.08 81.6605 137.209 80.7967 137.209 79.7271C137.209 78.6631 138.08 77.7994 139.153 77.7994H149.957ZM127.081 79.7271C127.081 78.6631 127.958 77.7994 129.031 77.7994H132.722C133.801 77.7994 134.672 78.6631 134.672 79.7271C134.672 80.7968 133.801 81.6605 132.722 81.6605H129.031C128.517 81.6605 128.021 81.4546 127.652 81.0942C127.289 80.7338 127.081 80.2419 127.081 79.7271ZM127.081 71.0667C127.081 70.0028 127.958 69.139 129.031 69.139H150.644C151.722 69.139 152.593 70.0028 152.593 71.0667C152.593 72.1364 151.722 73.0001 150.644 73.0001H129.031C127.958 73.0001 127.087 72.1421 127.081 71.0781V71.0667ZM149.524 113.746C149.893 114.112 150.095 114.604 150.095 115.113C150.095 115.627 149.893 116.114 149.524 116.48L141.726 124.213C140.97 124.968 139.736 124.968 138.974 124.213L134.562 119.837C133.806 119.082 133.812 117.864 134.568 117.115C135.329 116.359 136.558 116.359 137.319 117.109L140.353 120.118L146.773 113.751V113.745C147.136 113.385 147.632 113.179 148.151 113.179C148.665 113.179 149.161 113.385 149.524 113.746ZM149.524 144.452C149.893 144.818 150.095 145.31 150.095 145.819C150.095 146.334 149.893 146.826 149.524 147.186L141.726 154.919C140.97 155.675 139.736 155.675 138.974 154.919L134.568 150.549H134.562C133.806 149.794 133.812 148.57 134.568 147.821C135.329 147.066 136.558 147.066 137.319 147.815L140.353 150.818L146.773 144.452C147.534 143.696 148.763 143.697 149.524 144.452ZM147.972 131.833L144.8 134.979L147.972 138.131C148.342 138.491 148.543 138.983 148.549 139.498C148.549 140.007 148.342 140.505 147.978 140.865C147.609 141.225 147.113 141.431 146.594 141.431C146.081 141.431 145.584 141.225 145.215 140.859L142.043 137.708L138.871 140.854C138.513 141.243 138.011 141.471 137.481 141.483C136.95 141.489 136.437 141.288 136.062 140.917C135.687 140.545 135.479 140.036 135.491 139.509C135.502 138.983 135.727 138.485 136.119 138.131L139.292 134.985L136.119 131.839C135.364 131.084 135.364 129.865 136.125 129.11C136.881 128.355 138.109 128.355 138.871 129.104L142.043 132.25L145.215 129.104C145.977 128.355 147.211 128.355 147.967 129.11C148.728 129.865 148.728 131.084 147.972 131.839L147.972 131.833ZM244.65 159.067L232.122 146.643C230.767 145.299 228.713 144.933 226.965 145.716L222.38 141.169C225.397 136.124 226.642 130.226 225.91 124.403C225.177 118.586 222.512 113.169 218.336 109.016C218.106 108.787 217.869 108.575 217.639 108.358V48.3016C217.639 45.9277 215.695 44 213.301 44H117.881C115.488 44 113.544 45.9277 113.544 48.3016V54.4107H107.338C104.944 54.4107 103.006 56.3384 103 58.7123V173.704V173.698C103.006 176.072 104.944 178 107.338 178H202.775C205.169 178 207.107 176.072 207.112 173.698V167.589H213.319H213.313C215.707 167.589 217.65 165.662 217.65 163.288V158.443C217.881 159.02 218.227 159.547 218.671 159.981L231.205 172.411C232.999 174.185 235.906 174.185 237.706 172.411L244.662 165.513C246.45 163.728 246.444 160.845 244.656 159.066L244.65 159.067ZM224.007 148.25L220.287 151.94L216.394 148.079C217.068 147.53 217.72 146.94 218.343 146.323C218.972 145.705 219.56 145.059 220.108 144.384L224.007 148.25ZM215.586 143.588C209.853 149.274 201.495 151.499 193.661 149.417C185.823 147.335 179.709 141.266 177.609 133.498C175.51 125.725 177.748 117.436 183.481 111.75C189.22 106.064 197.578 103.839 205.412 105.921C213.245 108.003 219.364 114.072 221.464 121.84C223.563 129.613 221.325 137.902 215.586 143.588ZM213.752 48.3025V68.6088L192.825 47.8617H213.307C213.55 47.8674 213.746 48.0622 213.752 48.3025ZM190.074 50.5963L211.001 71.3492H190.074V50.5963ZM203.208 173.699C203.208 173.939 203.012 174.134 202.77 174.14H107.338C107.096 174.134 106.9 173.939 106.9 173.699V58.7074V58.7131C106.9 58.4728 107.096 58.2783 107.338 58.2726H113.545V163.289C113.545 165.669 115.488 167.591 117.882 167.591H203.214L203.208 173.699ZM213.314 163.729H117.882C117.64 163.723 117.444 163.529 117.438 163.289V48.3025C117.444 48.0565 117.64 47.8678 117.882 47.8621H186.175V73.276C186.175 74.3457 187.046 75.2094 188.125 75.2094H213.751V105.383C209.973 103.014 205.653 101.636 201.194 101.361H202.158C203.23 101.361 204.107 100.498 204.107 99.4336C204.107 98.364 203.23 97.5002 202.158 97.5002H178.393C177.32 97.5002 176.449 98.364 176.449 99.4336C176.449 100.498 177.32 101.361 178.393 101.361H197.877C192.657 101.676 187.65 103.512 183.486 106.641H150.401C149.322 106.641 148.451 107.511 148.451 108.574C148.451 109.644 149.322 110.508 150.401 110.508H179.35C177.648 112.47 176.247 114.678 175.197 117.046H155.407C154.334 117.046 153.458 117.915 153.458 118.979C153.458 120.049 154.335 120.913 155.407 120.913H173.841C172.786 124.877 172.676 129.03 173.512 133.045H155.406C154.334 133.045 153.457 133.909 153.457 134.979C153.457 136.043 154.334 136.912 155.406 136.912H174.632C175.958 140.441 178.041 143.65 180.729 146.31C181.236 146.814 181.755 147.294 182.297 147.746H155.407V147.752C154.865 147.712 154.34 147.901 153.942 148.261C153.55 148.627 153.325 149.142 153.325 149.674C153.325 150.211 153.55 150.721 153.942 151.087C154.34 151.453 154.865 151.642 155.407 151.601H188.192H188.348C196.325 155.257 205.606 154.776 213.162 150.326L213.75 150.915V163.288V163.282C213.75 163.528 213.554 163.722 213.306 163.728L213.314 163.729ZM217.651 154.788L217.743 154.88C217.709 154.948 217.674 155.023 217.651 155.091V154.788ZM221.429 156.276L228.38 149.383C228.656 149.114 229.095 149.114 229.372 149.383L233.634 153.61L225.686 161.487L221.423 157.259C221.152 156.985 221.152 156.544 221.423 156.27L221.429 156.276ZM241.899 162.791L234.943 169.689C234.666 169.958 234.228 169.958 233.951 169.689L228.437 164.215L236.385 156.333L241.899 161.801C242.17 162.076 242.176 162.516 241.899 162.791Z" fill="white"/>
</svg>
