<svg width="326" height="213" viewBox="0 0 326 213" fill="none" xmlns="http://www.w3.org/2000/svg">
<path d="M186.34 120.362L182.915 116.937C183.421 115.957 183.836 114.933 184.154 113.876H188.949C189.855 113.877 190.724 113.518 191.366 112.878C192.008 112.239 192.37 111.372 192.374 110.466V103.179C192.355 102.283 191.986 101.431 191.346 100.804C190.705 100.177 189.845 99.8266 188.949 99.8268H184.154C183.79 98.8066 183.353 97.7864 182.915 96.7662L186.34 93.3412C186.981 92.7094 187.348 91.8508 187.361 90.951C187.363 90.5019 187.273 90.0571 187.098 89.6436C186.923 89.2302 186.665 88.8568 186.34 88.5462L181.239 83.4452C180.604 82.8008 179.739 82.434 178.835 82.425C178.384 82.4158 177.938 82.502 177.523 82.6778C177.109 82.8536 176.736 83.1151 176.43 83.4452L173.005 86.8702C172.025 86.3642 171 85.9495 169.944 85.6313V80.676C169.944 79.7702 169.585 78.9012 168.946 78.2593C168.307 77.6175 167.44 77.2549 166.534 77.2511H159.174C158.291 77.2697 157.449 77.6288 156.824 78.2534C156.199 78.8781 155.84 79.72 155.822 80.6032V85.4127C154.801 85.7771 153.781 86.2143 152.761 86.6515L149.263 83.2266C148.631 82.5857 147.773 82.2192 146.873 82.2063C146.423 82.1972 145.976 82.2833 145.561 82.4592C145.147 82.635 144.774 82.8965 144.468 83.2266L139.367 88.3276C138.723 88.9629 138.356 89.8275 138.347 90.7324C138.346 91.1791 138.436 91.6214 138.611 92.0323C138.787 92.4432 139.044 92.8142 139.367 93.1226L142.792 96.5475C142.286 97.5276 141.871 98.5521 141.553 99.6082H136.598C135.69 99.6082 134.818 99.969 134.176 100.611C133.534 101.254 133.173 102.125 133.173 103.033V110.247C133.177 111.153 133.539 112.021 134.181 112.66C134.823 113.299 135.692 113.658 136.598 113.658H141.408C141.772 114.678 142.209 115.698 142.646 116.719L139.221 120.143C138.577 120.779 138.21 121.643 138.201 122.548C138.199 122.997 138.289 123.442 138.464 123.856C138.639 124.269 138.897 124.642 139.221 124.953L144.322 130.054C144.958 130.698 145.822 131.065 146.727 131.074C147.175 131.082 147.619 130.996 148.031 130.82C148.443 130.644 148.813 130.383 149.117 130.054L152.542 126.629C153.522 127.135 154.547 127.55 155.603 127.868V132.663C155.603 133.571 155.964 134.442 156.606 135.085C157.248 135.727 158.12 136.088 159.028 136.088H166.242C167.148 136.084 168.016 135.721 168.655 135.08C169.294 134.438 169.653 133.569 169.653 132.663V127.868C170.673 127.504 171.693 127.066 172.713 126.629L176.138 130.054C176.774 130.698 177.638 131.065 178.543 131.074C178.993 131.083 179.44 130.997 179.855 130.821C180.269 130.646 180.642 130.384 180.948 130.054L186.049 124.953C186.416 124.703 186.72 124.373 186.94 123.988C187.16 123.602 187.289 123.172 187.317 122.729C187.345 122.286 187.272 121.843 187.102 121.433C186.933 121.022 186.673 120.656 186.34 120.362ZM178.835 127.649L173.588 122.403L172.349 123.131C170.865 123.996 169.272 124.658 167.612 125.099L166.242 125.463V132.881H159.392V125.463L157.935 125.099C156.296 124.67 154.727 124.012 153.271 123.146L152.032 122.417L146.8 127.664L141.918 122.781L147.15 117.535L146.436 116.296C145.573 114.816 144.912 113.228 144.468 111.574L144.162 110.175H136.875V103.325H144.308L144.672 101.94C145.1 100.276 145.762 98.6807 146.64 97.2034L147.354 95.9646L142.049 90.8052L146.931 85.9228L152.163 91.155L153.402 90.4409C154.886 89.5758 156.479 88.914 158.139 88.4733L159.596 88.109V80.7489H166.446V88.1673L167.816 88.5316C169.481 88.959 171.076 89.6215 172.553 90.4992L173.792 91.2133L179.039 85.9811L183.921 90.8635L178.674 96.0957L179.403 97.3346C180.268 98.8182 180.93 100.411 181.371 102.071L181.735 103.529H189.153V110.379H181.604L181.239 111.749C180.812 113.413 180.15 115.008 179.272 116.485L178.543 117.724L183.79 122.971L178.835 127.649Z" fill="white"/>
<path d="M162.817 97.1305C160.9 97.1276 159.025 97.6936 157.429 98.7568C155.833 99.82 154.589 101.333 153.853 103.103C153.117 104.874 152.923 106.823 153.295 108.704C153.668 110.585 154.589 112.314 155.944 113.671C157.299 115.027 159.026 115.952 160.907 116.327C162.787 116.702 164.737 116.511 166.508 115.778C168.28 115.045 169.795 113.803 170.86 112.209C171.926 110.614 172.495 108.74 172.495 106.822C172.495 104.255 171.476 101.792 169.661 99.9744C167.847 98.1572 165.385 97.1344 162.817 97.1305ZM162.817 112.783C161.62 112.786 160.448 112.434 159.452 111.77C158.455 111.107 157.677 110.162 157.218 109.056C156.758 107.951 156.637 106.733 156.87 105.559C157.103 104.384 157.679 103.305 158.526 102.458C159.373 101.611 160.452 101.035 161.626 100.802C162.801 100.569 164.018 100.69 165.124 101.15C166.23 101.609 167.174 102.387 167.838 103.384C168.501 104.381 168.854 105.552 168.851 106.75C168.843 108.348 168.205 109.878 167.075 111.008C165.945 112.138 164.415 112.776 162.817 112.783Z" fill="white"/>
<path d="M163.692 155.676C161.132 155.44 158.584 156.228 156.603 157.867C154.623 159.506 153.373 161.862 153.125 164.42C153.003 165.685 153.133 166.961 153.508 168.174C153.883 169.388 154.497 170.515 155.312 171.489C156.982 173.433 159.324 174.676 161.87 174.972C162.162 174.972 162.453 174.972 162.744 174.972C165.152 174.964 167.471 174.067 169.257 172.453C171.043 170.839 172.17 168.622 172.422 166.228C172.548 164.96 172.422 163.681 172.051 162.462C171.679 161.244 171.07 160.112 170.258 159.13C169.447 158.149 168.448 157.339 167.321 156.746C166.194 156.153 164.96 155.789 163.692 155.676ZM166.68 165.659C166.576 166.681 166.075 167.621 165.284 168.275C164.493 168.93 163.476 169.247 162.453 169.157C161.945 169.116 161.45 168.973 160.999 168.735C160.548 168.496 160.15 168.169 159.83 167.773C159.168 166.953 158.854 165.906 158.955 164.858C159.005 164.344 159.16 163.846 159.411 163.394C159.662 162.943 160.003 162.548 160.413 162.234C161.115 161.67 161.989 161.361 162.89 161.36H163.255C164.277 161.481 165.21 162 165.851 162.805C166.493 163.61 166.79 164.636 166.68 165.659Z" fill="white"/>
<path d="M205.054 138.493C203.793 138.364 202.518 138.487 201.305 138.855C200.091 139.223 198.963 139.828 197.985 140.635C196.028 142.297 194.777 144.642 194.487 147.194C194.352 148.46 194.471 149.74 194.839 150.96C195.207 152.179 195.816 153.312 196.63 154.291C198.292 156.249 200.637 157.499 203.188 157.789C203.48 157.789 203.771 157.789 204.136 157.789C206.627 157.778 209.018 156.809 210.814 155.084C212.611 153.359 213.675 151.009 213.788 148.52C213.9 146.032 213.051 143.596 211.418 141.716C209.784 139.836 207.49 138.656 205.01 138.42L205.054 138.493ZM206.657 151.172C205.856 151.816 204.839 152.129 203.815 152.047C203.301 151.997 202.803 151.842 202.352 151.591C201.9 151.34 201.505 150.999 201.192 150.589C200.548 149.789 200.235 148.772 200.317 147.747C200.367 147.233 200.522 146.735 200.773 146.284C201.024 145.833 201.365 145.438 201.775 145.124C202.477 144.559 203.351 144.251 204.252 144.25H204.617C205.131 144.299 205.629 144.454 206.08 144.705C206.531 144.956 206.926 145.297 207.24 145.707C207.566 146.102 207.809 146.558 207.956 147.048C208.103 147.538 208.151 148.053 208.097 148.562C208.043 149.071 207.887 149.564 207.64 150.012C207.393 150.461 207.059 150.855 206.657 151.172Z" fill="white"/>
<path d="M228.796 100.628C227.134 98.6711 224.788 97.4204 222.237 97.1305C220.961 96.9933 219.671 97.1109 218.44 97.4764C217.21 97.8419 216.065 98.4481 215.071 99.2599C214.077 100.072 213.254 101.073 212.65 102.205C212.046 103.337 211.672 104.578 211.552 105.856C211.431 107.134 211.565 108.423 211.947 109.648C212.328 110.873 212.949 112.011 213.774 112.994C214.599 113.978 215.61 114.787 216.75 115.377C217.89 115.966 219.136 116.323 220.415 116.427C220.707 116.427 220.998 116.427 221.29 116.427C223.697 116.419 226.016 115.521 227.803 113.907C229.589 112.293 230.716 110.077 230.967 107.682C231.174 105.14 230.397 102.615 228.796 100.628ZM220.925 110.685C220.412 110.635 219.913 110.48 219.462 110.229C219.011 109.978 218.616 109.637 218.302 109.227C217.64 108.408 217.326 107.361 217.428 106.312C217.522 105.354 217.969 104.464 218.683 103.818C219.397 103.171 220.327 102.814 221.29 102.815H221.654C222.168 102.864 222.666 103.019 223.118 103.27C223.569 103.521 223.964 103.862 224.278 104.272C224.921 105.073 225.234 106.09 225.152 107.114C225.122 107.631 224.986 108.136 224.755 108.598C224.523 109.061 224.2 109.472 223.804 109.806C223.409 110.14 222.95 110.39 222.455 110.541C221.96 110.692 221.44 110.741 220.925 110.685Z" fill="white"/>
<path d="M203.305 75.1378C203.597 75.1378 203.888 75.2107 204.252 75.2107C206.514 75.2062 208.701 74.4065 210.432 72.9516C212.389 71.296 213.641 68.9552 213.93 66.4077C214.052 65.1434 213.922 63.8673 213.547 62.6538C213.172 61.4402 212.559 60.3135 211.744 59.3392C210.088 57.3817 207.747 56.1305 205.2 55.8413C203.928 55.7127 202.644 55.8398 201.423 56.2153C200.201 56.5907 199.067 57.2069 198.087 58.0275C196.13 59.6895 194.879 62.0346 194.59 64.5859C194.466 65.8481 194.595 67.1223 194.971 68.3336C195.346 69.545 195.96 70.6691 196.776 71.6399C198.408 73.6182 200.754 74.8746 203.305 75.1378ZM201.702 62.4726C202.404 61.908 203.278 61.5995 204.18 61.5982H204.544C205.052 61.639 205.547 61.7828 205.998 62.0208C206.449 62.2589 206.847 62.5861 207.167 62.9827C207.829 63.8024 208.143 64.849 208.042 65.8976C207.992 66.4115 207.837 66.9097 207.586 67.361C207.335 67.8124 206.994 68.2072 206.584 68.521C205.783 69.1648 204.767 69.4777 203.742 69.3955C203.234 69.3546 202.739 69.2108 202.288 68.9728C201.837 68.7348 201.439 68.4075 201.119 68.0109C200.475 67.21 200.162 66.1932 200.244 65.1689C200.284 64.6423 200.435 64.1301 200.686 63.6655C200.937 63.201 201.283 62.7945 201.702 62.4726Z" fill="white"/>
<path d="M161.943 57.9546C162.234 57.9546 162.526 58.0274 162.89 58.0274C165.152 58.0255 167.34 57.2255 169.07 55.7684C171.024 54.1099 172.274 51.7706 172.568 49.2245C172.69 47.9575 172.562 46.6787 172.19 45.4613C171.818 44.2438 171.211 43.1115 170.401 42.129C169.592 41.1464 168.597 40.3329 167.473 39.7349C166.35 39.1368 165.119 38.766 163.852 38.6435C162.585 38.521 161.306 38.6493 160.089 39.021C158.871 39.3927 157.739 40.0005 156.757 40.8098C155.774 41.6191 154.961 42.6141 154.363 43.7378C153.764 44.8615 153.394 46.092 153.271 47.359C153.149 48.621 153.279 49.8948 153.654 51.1059C154.03 52.3171 154.643 53.4413 155.457 54.413C156.222 55.4325 157.197 56.2761 158.316 56.887C159.435 57.4979 160.672 57.862 161.943 57.9546ZM162.817 44.4441H163.182C164.203 44.5475 165.143 45.0489 165.798 45.8399C166.452 46.6309 166.769 47.6478 166.68 48.6707C166.63 49.1827 166.475 49.679 166.225 50.128C165.974 50.5771 165.632 50.9692 165.222 51.2795C164.403 51.9415 163.356 52.2554 162.307 52.154C161.793 52.1042 161.295 51.949 160.844 51.6983C160.393 51.4476 159.998 51.1065 159.684 50.6965C159.04 49.9015 158.726 48.8889 158.809 47.8691C158.923 46.898 159.398 46.0056 160.142 45.3704C160.885 44.7353 161.841 44.4045 162.817 44.4441Z" fill="white"/>
<path d="M121.455 75.1378C123.718 75.1447 125.91 74.3436 127.635 72.8788C129.599 71.216 130.851 68.8636 131.133 66.3057C131.255 65.0414 131.125 63.7653 130.75 62.5517C130.375 61.3382 129.762 60.2114 128.946 59.2371C127.291 57.2796 124.95 56.0284 122.403 55.7393C120.491 55.5645 118.571 55.9595 116.883 56.8745C115.196 57.7895 113.817 59.1836 112.921 60.881C112.025 62.5785 111.651 64.5032 111.847 66.4127C112.043 68.3222 112.8 70.1309 114.022 71.6108C114.919 72.7165 116.052 73.6072 117.339 74.2175C118.625 74.8279 120.032 75.1423 121.455 75.1378ZM118.978 62.4726C119.68 61.908 120.554 61.5995 121.455 61.5982H121.82C122.328 61.639 122.823 61.7828 123.274 62.0208C123.725 62.2589 124.122 62.5861 124.443 62.9827C125.105 63.8024 125.419 64.849 125.317 65.8976C125.277 66.4059 125.133 66.9006 124.895 67.3516C124.657 67.8026 124.329 68.2005 123.933 68.521C123.14 69.1781 122.119 69.4935 121.095 69.3979C120.07 69.3022 119.125 68.8033 118.467 68.0109C117.81 67.2185 117.495 66.1975 117.591 65.1726C117.686 64.1476 118.185 63.2026 118.978 62.5455V62.4726Z" fill="white"/>
<path d="M111.763 100.628C110.105 98.6744 107.765 97.424 105.219 97.1305C103.952 97.008 102.674 97.1363 101.456 97.508C100.239 97.8797 99.1064 98.4876 98.1238 99.2969C97.1413 100.106 96.3278 101.101 95.7297 102.225C95.1317 103.348 94.7609 104.579 94.6384 105.846C94.5159 107.113 94.6441 108.392 95.0158 109.609C95.3875 110.827 95.9954 111.959 96.8047 112.942C97.614 113.924 98.6089 114.738 99.7326 115.336C100.856 115.934 102.087 116.305 103.354 116.427C103.645 116.427 103.937 116.427 104.228 116.427C106.635 116.415 108.952 115.517 110.738 113.904C112.523 112.29 113.651 110.075 113.906 107.682C114.049 106.423 113.933 105.147 113.565 103.934C113.196 102.72 112.583 101.596 111.763 100.628ZM103.981 110.685C103.008 110.567 102.116 110.087 101.484 109.339C100.852 108.591 100.526 107.631 100.572 106.653C100.618 105.675 101.033 104.75 101.733 104.065C102.433 103.38 103.366 102.985 104.345 102.96H104.709C105.221 103.009 105.718 103.164 106.167 103.415C106.616 103.666 107.008 104.007 107.318 104.418C107.962 105.219 108.275 106.235 108.193 107.26C108.075 108.267 107.569 109.188 106.782 109.828C105.996 110.468 104.99 110.775 103.981 110.685Z" fill="white"/>
<path d="M128.946 141.991C127.291 140.033 124.95 138.782 122.403 138.493C121.141 138.364 119.867 138.487 118.653 138.855C117.44 139.223 116.312 139.828 115.334 140.635C113.377 142.297 112.126 144.642 111.836 147.194C111.695 148.457 111.816 149.735 112.193 150.949C112.569 152.163 113.192 153.286 114.022 154.248C115.653 156.227 118.004 157.477 120.557 157.723C123.11 157.969 125.656 157.19 127.635 155.559C129.614 153.928 130.864 151.578 131.11 149.025C131.356 146.472 130.578 143.926 128.946 141.947V141.991ZM123.933 151.172C123.542 151.502 123.09 151.751 122.603 151.904C122.115 152.057 121.602 152.111 121.093 152.063C120.584 152.016 120.09 151.868 119.639 151.627C119.189 151.386 118.79 151.058 118.467 150.662C117.824 149.861 117.511 148.845 117.593 147.82C117.634 147.312 117.778 146.817 118.016 146.366C118.254 145.915 118.581 145.517 118.978 145.197C119.68 144.632 120.554 144.324 121.455 144.322H121.82C122.333 144.372 122.832 144.527 123.283 144.778C123.734 145.029 124.129 145.37 124.443 145.78C125.086 146.564 125.393 147.571 125.298 148.581C125.202 149.591 124.712 150.522 123.933 151.172Z" fill="white"/>
<path d="M127.066 105.365H119.05V109.009H127.066V105.365Z" fill="white"/>
<path d="M136.482 131.103L130.814 136.772L133.39 139.348L139.058 133.68L136.482 131.103Z" fill="white"/>
<path d="M165.003 142.573H161.36V150.589H165.003V142.573Z" fill="white"/>
<path d="M189.672 130.564L187.096 133.141L192.764 138.809L195.34 136.232L189.672 130.564Z" fill="white"/>
<path d="M206.584 104.636H198.568V108.28H206.584V104.636Z" fill="white"/>
<path d="M192.235 74.2927L186.567 79.9608L189.143 82.5372L194.811 76.8691L192.235 74.2927Z" fill="white"/>
<path d="M164.275 63.0556H160.631V71.0715H164.275V63.0556Z" fill="white"/>
<path d="M132.851 74.8218L130.275 77.3982L135.943 83.0663L138.519 80.4899L132.851 74.8218Z" fill="white"/>
</svg>
