<?xml version="1.0" encoding="UTF-8"?>
<svg id="Layer_1" data-name="Layer 1" xmlns="http://www.w3.org/2000/svg" viewBox="0 0 142.46 40.47">
  <defs>
    <style>
      .cls-1 {
        fill: #231f35;
      }

      .cls-1, .cls-2 {
        stroke-width: 0px;
      }

      .cls-2 {
        fill: #f1582a;
      }
    </style>
  </defs>
  <path class="cls-1" d="M10.75,30.77H0l.14-.61c.36,0,.74-.03,1.12-.08,1-.12,1.6-.54,1.82-1.26,1.8-7.79,2.7-11.7,2.7-11.75,0-.33-.13-.58-.38-.75-.25-.18-.56-.29-.91-.33-.35-.04-.69-.07-1.02-.07l.13-.6h2.6c.87,0,1.67-.1,2.4-.29.73-.19,1.36-.41,1.87-.66.52-.24.92-.46,1.21-.65l.43-.29c-2.38,10.32-3.57,15.54-3.57,15.64,0,.27.11.5.34.67.23.17.52.29.87.34.36.05.73.07,1.13.07l-.13.61Z"/>
  <path class="cls-1" d="M113.34,31.16c-1.7,0-3.11-.38-4.23-1.16-1.12-.77-1.89-1.8-2.31-3.11-.22-.69-.34-1.43-.34-2.21,0-.69.09-1.42.27-2.19.4-1.64,1.12-3.11,2.16-4.41,1.04-1.3,2.29-2.34,3.73-3.11,1.45-.77,2.97-1.15,4.55-1.15,1.9,0,3.46.53,4.66,1.58,1.21,1.05,1.89,2.46,2.05,4.21l.03.38-.02.2-11.88,3.14c-.04.36-.07.7-.07,1.02,0,1.02.23,1.92.7,2.69.46.78,1.14,1.36,2.04,1.74.6.21,1.21.32,1.82.32,1.1,0,2.17-.27,3.21-.8,1.04-.53,1.91-1.17,2.61-1.9l-.1.41c-.25.42-.62.88-1.12,1.37-.5.49-1.12.97-1.86,1.42-.74.45-1.6.83-2.59,1.12-.98.3-2.09.44-3.31.44ZM112.12,22.72l6.3-1.66c.21-1.19.32-2.26.32-3.23,0-.04,0-.32,0-.84,0-.52-.14-1.07-.42-1.66-.27-.59-.7-.89-1.29-.89-.62,0-1.25.38-1.88,1.15-.63.76-1.2,1.7-1.7,2.79-.7,1.55-1.14,3-1.32,4.35Z"/>
  <path class="cls-1" d="M130.22,40.47h-10.7l.15-.61c.33,0,.68-.02,1.05-.07.95-.11,1.56-.5,1.82-1.17,3.24-14.03,4.86-21.06,4.86-21.11,0-.33-.13-.58-.38-.76-.26-.18-.55-.29-.9-.33-.35-.04-.69-.07-1.03-.07l.13-.59h2.6c.88,0,1.69-.1,2.41-.29.72-.19,1.35-.41,1.87-.65.53-.24.94-.46,1.23-.66l.42-.29-.05.24c.69-.18,1.38-.27,2.07-.27,1.58,0,2.92.39,4.02,1.16,1.09.78,1.86,1.82,2.3,3.13.24.71.36,1.48.36,2.29,0,.68-.08,1.38-.24,2.12-.4,1.61-1.11,3.06-2.14,4.36-1.03,1.29-2.26,2.33-3.69,3.11-1.43.78-2.89,1.16-4.4,1.16-1.04,0-1.72-.28-2.04-.83-1.28,5.51-1.92,8.29-1.92,8.32,0,.35.13.62.38.79.25.18.56.29.91.33.35.05.7.07,1.04.07l-.15.61ZM131.71,30.63l.21-.02c.7-.12,1.36-.58,1.99-1.39.62-.81,1.18-1.81,1.67-3,.49-1.19.88-2.4,1.16-3.65.43-1.86.64-3.44.64-4.74,0-.88-.11-1.66-.35-2.33-.23-.67-.7-1-1.4-1-.58,0-1.13.28-1.65.85-.29.29-.56.64-.8,1.03l-3.02,13.11c.08.28.26.54.54.78.28.24.61.36,1.01.36Z"/>
  <path class="cls-1" d="M81.85,30.8c-1.21,0-2.04-.04-2.5-.13-1.21-.16-2.09-.52-2.63-1.09-.43-.44-.65-.98-.65-1.63,0-.95.45-1.69,1.34-2.21.48-.21.89-.32,1.26-.32s.66.06.86.2c.2.13.3.25.3.35v.07c-.28.5-.46.86-.53,1.09-.09.36-.13.67-.13.92,0,.53.19.96.58,1.29.53.44,1.23.66,2.11.66.53,0,1.08-.08,1.65-.23.57-.15,1.05-.38,1.46-.67.6-.46.98-1.01,1.15-1.64.02-.1.04-.21.04-.32,0-.54-.34-1.06-1.01-1.54-.68-.49-1.52-.98-2.54-1.49-1.02-.51-1.98-1.07-2.88-1.68-.47-.29-.89-.75-1.28-1.36-.24-.38-.36-.86-.36-1.43,0-.33.04-.69.12-1.09.32-1.29,1.05-2.36,2.2-3.22,1.15-.86,2.57-1.42,4.25-1.69.01,0,.04-.02.09-.02.71-.11,1.41-.17,2.09-.17.71,0,1.26.04,1.63.1,1.22.16,2.1.52,2.62,1.09.43.44.65.99.65,1.63,0,.96-.44,1.7-1.32,2.21-.49.23-.91.34-1.28.34s-.66-.06-.86-.19c-.2-.13-.29-.25-.29-.37v-.05c.27-.47.45-.84.52-1.1.14-.5.21-.9.21-1.21,0-1.1-.75-1.65-2.24-1.65-.68,0-1.31.2-1.9.61-.5.35-.82.78-.95,1.29-.02.12-.03.23-.03.34,0,.61.35,1.17,1.05,1.68.57.4,1.26.84,2.09,1.29,1.19.63,2.37,1.41,3.55,2.32.5.39.9.87,1.2,1.45.19.35.29.78.29,1.27,0,.28-.03.59-.1.93l-.2.63c-.43,1.23-1.32,2.3-2.68,3.19-1.36.89-3.18,1.4-5.47,1.51-.47.04-.96.05-1.44.05Z"/>
  <path class="cls-1" d="M99.06,30.85c-2.15,0-3.59-.77-4.31-2.31-.23-.47-.34-1.03-.34-1.66,0-.58.09-1.22.27-1.93h-.02l2.52-10.85h-2.6l.14-.61c1.25,0,2.37-.22,3.39-.66,1.01-.44,1.9-.98,2.67-1.63.77-.65,1.42-1.29,1.95-1.94.53-.64.92-1.19,1.19-1.63l.41-.66-1.51,6.52h5.06l-.13.61h-5.06l-2.05,8.9c-.27,1.06-.45,2.06-.54,3l-.02.46c0,.72.19,1.3.56,1.73.42.35.89.53,1.42.53.62,0,1.25-.17,1.87-.52.62-.35,1.11-.75,1.46-1.23l-.08.39c-.12.31-.43.71-.92,1.21-.49.5-1.14.98-1.94,1.42-.8.44-1.71.72-2.73.83-.21.02-.43.03-.64.03Z"/>
  <path class="cls-1" d="M56.18,30.77h-10.73l.13-.61c.36,0,.74-.03,1.14-.08.99-.12,1.59-.55,1.8-1.29l1.56-6.74c.43-1.82.65-3.29.65-4.4,0-.21-.03-.66-.08-1.33-.05-.67-.55-1-1.5-1-.54,0-1.09.22-1.64.67-.55.45-1.05,1.02-1.52,1.71-.46.7-.85,1.45-1.15,2.25l-2.04,8.84c-.02.1-.03.19-.03.27,0,.27.11.49.33.67.22.17.51.29.87.34.36.05.74.08,1.12.08l-.13.61h-10.75l.14-.61c.36,0,.73-.03,1.12-.08.99-.12,1.6-.54,1.84-1.26,1.79-7.79,2.68-11.7,2.68-11.75,0-.33-.13-.58-.38-.76-.26-.18-.55-.29-.9-.33-.34-.04-.69-.07-1.03-.07l.14-.6h2.6c.88,0,1.69-.1,2.41-.29s1.35-.41,1.88-.65c.53-.24.94-.46,1.23-.65l.42-.29-.97,4.18c.15-.26.39-.61.74-1.06.35-.45.77-.91,1.27-1.38.5-.47,1.07-.88,1.71-1.21.64-.33,1.33-.5,2.06-.5,2.54,0,4.1.93,4.65,2.79.19.62.29,1.31.29,2.05,0,1.08-.18,2.34-.53,3.79l-1.6,6.91c0,.62.42.99,1.27,1.1.33.05.68.07,1.05.07l-.14.61Z"/>
  <path class="cls-1" d="M34.45,30.77h-10.73l.14-.61c.36,0,.74-.03,1.14-.08.99-.12,1.6-.55,1.8-1.29l1.56-6.74c.43-1.82.64-3.29.64-4.4,0-.21-.03-.66-.08-1.33-.05-.67-.55-1-1.5-1-.54,0-1.09.22-1.64.67-.55.45-1.05,1.02-1.52,1.71-.46.7-.85,1.45-1.15,2.25l-2.04,8.84c-.02.1-.04.19-.04.27,0,.27.11.49.33.67.22.17.51.29.87.34.36.05.74.08,1.12.08l-.13.61h-10.75l.14-.61c.36,0,.73-.03,1.12-.08.99-.12,1.6-.54,1.84-1.26,1.79-7.79,2.68-11.7,2.68-11.75,0-.33-.13-.58-.38-.76-.26-.18-.55-.29-.9-.33-.35-.04-.69-.07-1.03-.07l.14-.6h2.6c.88,0,1.69-.1,2.41-.29.72-.19,1.35-.41,1.88-.65s.94-.46,1.23-.65l.42-.29-.97,4.18c.15-.26.39-.61.74-1.06.35-.45.77-.91,1.28-1.38.5-.47,1.07-.88,1.71-1.21.64-.33,1.33-.5,2.06-.5,2.54,0,4.09.93,4.65,2.79.19.62.29,1.31.29,2.05,0,1.08-.18,2.34-.53,3.79l-1.6,6.91c0,.62.42.99,1.27,1.1.33.05.68.07,1.05.07l-.14.61Z"/>
  <path class="cls-1" d="M64.96,30.77c-1.58,0-2.91-.38-4.01-1.15-1.1-.77-1.87-1.8-2.31-3.09-.24-.71-.36-1.48-.36-2.29,0-.68.08-1.39.24-2.12.4-1.64,1.12-3.11,2.16-4.41,1.04-1.3,2.29-2.34,3.74-3.11,1.45-.77,2.96-1.15,4.55-1.15s2.91.38,4.01,1.15c1.1.77,1.87,1.8,2.31,3.11.24.71.36,1.48.36,2.29,0,.68-.08,1.39-.24,2.12-.38,1.64-1.1,3.11-2.15,4.41-1.05,1.3-2.29,2.33-3.74,3.1-1.45.77-2.96,1.15-4.55,1.15ZM65.11,30.16c.46,0,.94-.25,1.43-.76.49-.5.95-1.16,1.39-1.97.44-.81.83-1.68,1.18-2.62.35-.93.61-1.84.81-2.71.42-1.8.63-3.34.63-4.63,0-2.29-.57-3.43-1.72-3.43-.7,0-1.36.37-1.96,1.11-.61.74-1.15,1.72-1.64,2.94-.49,1.21-.89,2.55-1.22,4.01-.37,1.6-.56,3.05-.56,4.35,0,.36.02.83.07,1.39.04.56.2,1.09.46,1.58.26.49.64.73,1.14.73Z"/>
  <g>
    <polygon class="cls-2" points="10.04 5.58 13.65 4.37 11.14 7.22 12.36 10.83 9.49 8.32 5.89 9.54 8.4 6.68 7.18 3.07 10.04 5.58"/>
    <polygon class="cls-2" points="10.95 6.16 16.72 8.34 10.55 8.13 8.38 13.9 8.59 7.74 2.81 5.56 8.98 5.77 11.15 0 10.95 6.16"/>
  </g>
</svg>