<svg width="121" height="120" viewBox="0 0 121 120" fill="none" xmlns="http://www.w3.org/2000/svg">
<circle cx="60.0625" cy="60" r="60" fill="#DFE5EE"/>
<rect x="27.2969" y="25" width="54.6174" height="60.4809" rx="7" fill="white"/>
<path d="M36.0234 55.2404H59.1541" stroke="#1C1F23" stroke-width="2" stroke-linecap="round"/>
<path d="M36.0234 47.811L73.186 47.811" stroke="#1C1F23" stroke-width="2" stroke-linecap="round"/>
<path d="M36.0234 40.3814L73.186 40.3814" stroke="#1C1F23" stroke-width="2" stroke-linecap="round"/>
<path d="M73.792 95C84.3065 95 92.8302 86.4763 92.8302 75.9618C92.8302 65.4474 84.3065 56.9237 73.792 56.9237C63.2776 56.9237 54.7539 65.4474 54.7539 75.9618C54.7539 86.4763 63.2776 95 73.792 95Z" fill="#005DFF"/>
<path d="M68.3906 73.1102V70.2211C68.3906 67.2368 70.8099 64.8176 73.7942 64.8176V64.8176C76.7785 64.8176 79.1977 67.2368 79.1977 70.2211V73.1102" stroke="white" stroke-width="2"/>
<rect x="65.8008" y="73.4147" width="15.9762" height="12.6915" rx="2" stroke="white" stroke-width="2"/>
</svg>
