<svg width="256" height="256" viewBox="0 0 256 256" fill="none" xmlns="http://www.w3.org/2000/svg">
<path d="M4.32715 95.4885C4.32715 88.2697 8.09147 81.6809 14.029 78.5071L152.543 4.46673C164.046 -1.68209 177.47 7.46269 177.47 21.4481V161.303C177.47 171.745 169.718 180.21 160.155 180.21H21.6414C12.079 180.21 4.32715 171.745 4.32715 161.303V95.4885Z" fill="#005DFF"/>
<path d="M251.673 156.893C251.673 164.112 247.909 170.701 241.971 173.874L103.458 247.915C91.9544 254.064 78.531 244.919 78.531 230.933L78.531 91.0783C78.531 80.6363 86.2828 72.1715 95.8452 72.1715L234.359 72.1715C243.922 72.1715 251.673 80.6364 251.673 91.0783L251.673 156.893Z" fill="#005DFF"/>
<path fill-rule="evenodd" clip-rule="evenodd" d="M177.469 72.1715V161.303C177.469 171.745 169.717 180.21 160.155 180.21H78.5308L78.5308 91.0783C78.5308 80.6363 86.2826 72.1715 95.845 72.1715L177.469 72.1715Z" fill="#4BA9FF"/>
</svg>
